<svg width="528" height="484" fill="none" xmlns="http://www.w3.org/2000/svg"><path d="M20.4 253.88H22v7.68H9.46v-1.7H20.4v-5.98zm-10-3.334v1.76H8.7v-1.76h1.7zm11.6.06v1.64h-9.88v-1.64H22zm-9.7-10.837h12.74v1.64h-3.76c.28.467.5.993.66 1.58.147.573.22 1.16.22 1.76 0 1.333-.393 2.287-1.18 2.86-.8.56-2.113.84-3.94.84-1.84 0-3.153-.367-3.94-1.1-.787-.733-1.18-1.98-1.18-3.74 0-.667.04-1.36.12-2.08.067-.72.153-1.307.26-1.76zm1.1 3.84c0 1.293.253 2.153.76 2.58.493.413 1.453.62 2.88.62 1.36 0 2.3-.18 2.82-.54.52-.36.78-1.053.78-2.08 0-.467-.06-.94-.18-1.42a6.095 6.095 0 00-.5-1.36h-6.34c-.067.32-.12.673-.16 1.06-.04.373-.06.753-.06 1.14zm8.76-9.66c0 1.093-.273 1.913-.82 2.46-.547.546-1.367.82-2.46.82h-6.76v-1.64h6.56c.68 0 1.173-.174 1.48-.52.307-.347.46-.894.46-1.64 0-.454-.053-.907-.16-1.36a6.7 6.7 0 00-.54-1.4h-7.8v-1.64H22v1.5l-.82.08v.04c.36.693.613 1.293.76 1.8.147.506.22 1.006.22 1.5zm-11.76-9.262v1.76H8.7v-1.76h1.7zm11.6.06v1.64h-9.88v-1.64H22zM8.7 215.57v-1.64H22v1.42l-.92.12v.04c.36.386.633.86.82 1.42.173.546.26 1.18.26 1.9 0 1.346-.4 2.313-1.2 2.9-.8.573-2.107.86-3.92.86-1.813 0-3.12-.354-3.92-1.06-.8-.707-1.2-1.887-1.2-3.54 0-.467.04-.9.12-1.3.067-.414.167-.787.3-1.12H8.7zm4.7 2.22c0 1.24.26 2.08.78 2.52.52.426 1.473.64 2.86.64 1.347 0 2.287-.187 2.82-.56.52-.387.78-1.1.78-2.14 0-.494-.06-.967-.18-1.42a4.692 4.692 0 00-.58-1.26H13.8c-.133.32-.233.66-.3 1.02-.067.36-.1.76-.1 1.2zm-3-8.201v1.76H8.7v-1.76h1.7zm11.6.06v1.64h-9.88v-1.64H22zm-1.54-8.437h1.38c.093.213.167.507.22.88.067.36.1.707.1 1.04 0 1.2-.267 2.06-.8 2.58-.533.507-1.453.76-2.76.76h-5.08v1.48h-1.4v-1.5l-2.4-.26v-1.36h2.4v-3.52h1.4v3.52h5.02c.813 0 1.367-.147 1.66-.44.293-.307.44-.84.44-1.6 0-.24-.02-.513-.06-.82-.04-.32-.08-.573-.12-.76zm3.3-2.522c0-.507-.113-.887-.34-1.14-.213-.267-.733-.547-1.56-.84l-9.74 4.04v-1.84l8.1-3.04-8.1-2.88v-1.76l10.54 4.04c.96.36 1.627.78 2 1.26.387.48.58 1.1.58 1.86 0 .227-.013.467-.04.72-.027.24-.06.48-.1.72h-1.44c.04-.147.067-.307.08-.48.013-.187.02-.407.02-.66zm238.38 273.25V476h-1.7v-12.54h4.26c1.773 0 3.04.32 3.8.96.773.64 1.16 1.687 1.16 3.14 0 1.48-.4 2.58-1.2 3.3-.8.72-2.033 1.08-3.7 1.08h-2.62zm5.8-4.38c0-.92-.253-1.573-.76-1.96-.493-.4-1.32-.6-2.48-.6h-2.56v5.44h2.56c1.16 0 1.987-.227 2.48-.68.507-.453.76-1.187.76-2.2zm5.29 8.44h-1.64v-9.88h1.5l.08.84h.08a6.604 6.604 0 011.56-.68c.52-.16 1.033-.24 1.54-.24h.42c.08 0 .14.007.18.02v1.58a1.335 1.335 0 00-.36-.04 7.35 7.35 0 00-.64-.02c-.48 0-.954.06-1.42.18a5.127 5.127 0 00-1.3.5V476zm7.11-11.6h-1.76v-1.7h1.76v1.7zm-.06 11.6h-1.64v-9.88h1.64V476zm9.538-1.96v1.38c-.334.213-.834.393-1.5.54-.654.133-1.34.2-2.06.2-1.4 0-2.387-.38-2.96-1.14-.56-.76-.84-2.087-.84-3.98 0-1.853.366-3.167 1.1-3.94.733-.787 1.98-1.18 3.74-1.18.386 0 .733.013 1.04.04.32.013.726.053 1.22.12v1.46a13.49 13.49 0 00-1.22-.12c-.307-.013-.654-.02-1.04-.02-1.254 0-2.1.26-2.54.78-.44.507-.66 1.46-.66 2.86s.173 2.353.52 2.86c.346.493 1.013.74 2 .74.546 0 1.113-.053 1.7-.16a8.181 8.181 0 001.5-.44zm9.231.04v1.38c-.347.187-.86.353-1.54.5-.667.133-1.347.2-2.04.2-1.547 0-2.654-.4-3.32-1.2-.667-.8-1-2.12-1-3.96 0-1.773.346-3.06 1.04-3.86.693-.813 1.8-1.22 3.32-1.22 1.413 0 2.426.32 3.04.96.613.627.92 1.68.92 3.16 0 .267-.007.513-.02.74-.014.227-.04.5-.08.82h-6.56c.013 1.093.233 1.873.66 2.34.44.467 1.193.7 2.26.7.573 0 1.173-.053 1.8-.16.626-.107 1.133-.24 1.52-.4zm-1.08-4.26c-.014-.88-.207-1.5-.58-1.86-.374-.373-1-.56-1.88-.56-.987 0-1.687.213-2.1.64-.4.413-.6 1.147-.6 2.2h5.14v-.18c.013-.107.02-.187.02-.24z" fill="#A4A9C2"/><path d="M40.707.293a1 1 0 00-1.414 0l-6.364 6.364a1 1 0 001.414 1.414L40 2.414l5.657 5.657a1 1 0 001.414-1.414L40.707.293zM41 446V1h-2v445h2z" fill="url(#paint0_linear_17_24)"/><path d="M527.061 447.061a1.502 1.502 0 000-2.122l-9.546-9.546a1.502 1.502 0 00-2.122 0 1.502 1.502 0 000 2.122l8.486 8.485-8.486 8.485a1.502 1.502 0 000 2.122 1.502 1.502 0 002.122 0l9.546-9.546zM38 447.5h488v-3H38v3z" fill="url(#paint1_linear_17_24)"/><path fill="url(#paint2_linear_17_24)" stroke="url(#paint3_linear_17_24)" d="M88.5 395.5h49v50h-49z"/><path fill="url(#paint4_linear_17_24)" stroke="url(#paint5_linear_17_24)" d="M388.5 395.5h49v50h-49z"/><path fill="url(#paint6_linear_17_24)" stroke="url(#paint7_linear_17_24)" d="M138.5 285.5h49v160h-49z"/><path fill="url(#paint8_linear_17_24)" stroke="url(#paint9_linear_17_24)" d="M338.5 285.5h49v160h-49z"/><path fill="url(#paint10_linear_17_24)" stroke="url(#paint11_linear_17_24)" d="M188.5 156.5h49v289h-49z"/><path fill="url(#paint12_linear_17_24)" stroke="url(#paint13_linear_17_24)" d="M288.5 156.5h49v289h-49z"/><path fill="url(#paint14_linear_17_24)" stroke="url(#paint15_linear_17_24)" d="M238.5 93.5h49v352h-49z"/><defs><linearGradient id="paint1_linear_17_24" x1="38" y1="447" x2="526" y2="447.001" gradientUnits="userSpaceOnUse"><stop stop-color="#BF5EFF"/><stop offset="1" stop-color="#5E36FF"/></linearGradient><linearGradient id="paint8_linear_17_24" x1="363" y1="285" x2="363" y2="446" gradientUnits="userSpaceOnUse"><stop stop-color="#BF5EFF"/><stop offset=".464" stop-color="#5E36FF"/><stop offset="1" stop-color="#5E36FF" stop-opacity="0"/></linearGradient><linearGradient id="paint2_linear_17_24" x1="113" y1="395" x2="113" y2="446" gradientUnits="userSpaceOnUse"><stop stop-color="#BF5EFF"/><stop offset=".464" stop-color="#5E36FF"/><stop offset="1" stop-color="#5E36FF" stop-opacity="0"/></linearGradient><linearGradient id="paint3_linear_17_24" x1="88" y1="446" x2="138" y2="446" gradientUnits="userSpaceOnUse"><stop stop-color="#BF5EFF"/><stop offset="1" stop-color="#5E36FF"/></linearGradient><linearGradient id="paint4_linear_17_24" x1="413" y1="395" x2="413" y2="446" gradientUnits="userSpaceOnUse"><stop stop-color="#BF5EFF"/><stop offset=".464" stop-color="#5E36FF"/><stop offset="1" stop-color="#5E36FF" stop-opacity="0"/></linearGradient><linearGradient id="paint5_linear_17_24" x1="388" y1="446" x2="438" y2="446" gradientUnits="userSpaceOnUse"><stop stop-color="#BF5EFF"/><stop offset="1" stop-color="#5E36FF"/></linearGradient><linearGradient id="paint6_linear_17_24" x1="163" y1="285" x2="163" y2="446" gradientUnits="userSpaceOnUse"><stop stop-color="#BF5EFF"/><stop offset=".464" stop-color="#5E36FF"/><stop offset="1" stop-color="#5E36FF" stop-opacity="0"/></linearGradient><linearGradient id="paint7_linear_17_24" x1="138" y1="446" x2="188" y2="446" gradientUnits="userSpaceOnUse"><stop stop-color="#BF5EFF"/><stop offset="1" stop-color="#5E36FF"/></linearGradient><linearGradient id="paint0_linear_17_24" x1="41" y1="446" x2="41.001" y2="1" gradientUnits="userSpaceOnUse"><stop stop-color="#A142EA"/><stop offset="1" stop-color="#3415E8"/></linearGradient><linearGradient id="paint9_linear_17_24" x1="338" y1="446" x2="388" y2="446" gradientUnits="userSpaceOnUse"><stop stop-color="#BF5EFF"/><stop offset="1" stop-color="#5E36FF"/></linearGradient><linearGradient id="paint10_linear_17_24" x1="213" y1="156" x2="213" y2="446" gradientUnits="userSpaceOnUse"><stop stop-color="#BF5EFF"/><stop offset=".464" stop-color="#5E36FF"/><stop offset="1" stop-color="#5E36FF" stop-opacity="0"/></linearGradient><linearGradient id="paint11_linear_17_24" x1="188" y1="446" x2="238" y2="446" gradientUnits="userSpaceOnUse"><stop stop-color="#BF5EFF"/><stop offset="1" stop-color="#5E36FF"/></linearGradient><linearGradient id="paint12_linear_17_24" x1="313" y1="156" x2="313" y2="446" gradientUnits="userSpaceOnUse"><stop stop-color="#BF5EFF"/><stop offset=".464" stop-color="#5E36FF"/><stop offset="1" stop-color="#5E36FF" stop-opacity="0"/></linearGradient><linearGradient id="paint13_linear_17_24" x1="288" y1="446" x2="338" y2="446" gradientUnits="userSpaceOnUse"><stop stop-color="#BF5EFF"/><stop offset="1" stop-color="#5E36FF"/></linearGradient><linearGradient id="paint14_linear_17_24" x1="263" y1="93" x2="263" y2="446" gradientUnits="userSpaceOnUse"><stop stop-color="#BF5EFF"/><stop offset=".464" stop-color="#5E36FF"/><stop offset="1" stop-color="#5E36FF" stop-opacity="0"/></linearGradient><linearGradient id="paint15_linear_17_24" x1="238" y1="446" x2="288" y2="446" gradientUnits="userSpaceOnUse"><stop stop-color="#BF5EFF"/><stop offset="1" stop-color="#5E36FF"/></linearGradient></defs></svg>