<svg width="222" height="175" fill="none" xmlns="http://www.w3.org/2000/svg"><path d="M202.415 59.452l-45.422-20.727c-3.793-1.725-8.101 1.084-8.076 5.274l.073 18.73a5.773 5.773 0 003.353 5.226l45.348 20.776c3.794 1.725 8.101-1.06 8.101-5.25v-18.78a5.764 5.764 0 00-3.377-5.25z" fill="url(#paint0_linear_101_14)"/><path d="M49.914 38.63l23.171-10.182c3.432-1.512 7.29.99 7.29 4.707l-.1 20.339c0 2.007-1.203 3.815-3.056 4.657L54.148 68.383c-3.457 1.511-7.315-.966-7.315-4.682V43.31a5.101 5.101 0 013.081-4.681z" fill="url(#paint1_linear_101_14)"/><path d="M218.752 126.13l-23.171-10.182c-3.432-1.512-7.289.991-7.289 4.707l.1 20.339c0 2.007 1.202 3.815 3.056 4.658l23.071 10.231c3.457 1.511 7.314-.966 7.314-4.682v-20.389a5.1 5.1 0 00-3.081-4.682z" fill="url(#paint2_linear_101_14)"/><path d="M3.544 116.327L48.965 95.6c3.794-1.725 8.1 1.084 8.076 5.274l-.073 18.731a5.774 5.774 0 01-3.353 5.225L8.267 145.606c-3.793 1.725-8.1-1.06-8.1-5.25v-18.78a5.762 5.762 0 013.377-5.249z" fill="url(#paint3_linear_101_14)"/><path d="M100.1 32.683c-29.11 16.783-52.934 57.97-52.934 91.531 0 17.505 6.482 29.612 16.812 34.812.87.439 23.428 13.565 23.428 13.565s.05-10.572 12.701-17.867c29.116-16.783 52.933-57.97 52.933-91.53 0-11.117 8.116-20.436 8.116-20.436l-13.133-7.698c-13.231-7.79-31.734-11.703-47.923-2.377z" fill="url(#paint4_linear_101_14)"/><path d="M122.593 45.801C93.477 62.585 69.66 103.772 69.66 137.332c0 33.56 23.824 47.287 52.933 30.504 29.11-16.784 52.934-57.972 52.934-91.532.007-33.56-23.817-47.287-52.934-30.503z" fill="#CFCFFF"/><path d="M123.655 52.197C98.097 67.1 77.182 103.666 77.182 133.463s20.915 41.987 46.473 27.086c25.557-14.902 46.473-51.469 46.473-81.265s-20.916-41.987-46.473-27.086z" fill="#DFE2FC"/><path d="M134.948 47.04c3.686 5.603 5.788 13.273 5.788 22.712 0 29.796-20.916 66.363-46.474 81.265-4.012 2.342-7.91 4.012-11.632 5.052 7.939 12.078 23.222 14.547 40.685 4.373 25.558-14.902 46.473-51.469 46.473-81.265 0-25.119-14.859-37.72-34.84-32.138z" fill="#fff" opacity=".57"/><path d="M124.476 97.602c-3.418 1.996-6.22 6.885-6.22 10.876 0 3.99 2.802 5.618 6.22 3.622 3.417-1.995 6.219-6.884 6.219-10.875 0-3.984-2.795-5.618-6.219-3.623z" fill="#8F9AEE"/><path d="M147.833 46.013c10.082 4.083 16.514 15.178 16.514 31.692 0 29.796-20.916 66.363-46.473 81.265-8.845 5.151-17.123 7.061-24.185 6.127 8.109 3.284 18.567 2.038 29.959-4.606 25.557-14.901 46.473-51.469 46.473-81.264.007-19.487-8.944-31.445-22.288-33.214z" fill="#A7A7DB" opacity=".23"/><path d="M121.801 36.56l9.347 5.017V25.833l-9.347-5.01V36.56z" fill="#DFE2FC"/><path d="M106.234 43.26l11.145 5.973V30.475l-11.145-5.972v18.758z" fill="#6262CC"/><path d="M117.379 30.475l14.264-7.43v18.758l-14.264 7.43V30.475z" fill="#CFCFFF"/><path d="M94.637 21.1l12.206 7.033 36.61-21.1L131.254 0 94.637 21.1z" fill="url(#paint5_linear_101_14)"/><path d="M94.637 30.482V21.1l12.206 7.033v9.382l-12.206-7.033z" fill="#6262CC"/><path d="M143.453 7.033v9.376l-36.61 21.106v-9.382l36.61-21.1z" fill="#CFCFFF"/><path d="M125.855 66.922l-1.379 1.054V56.231l1.379-1.055v11.746zm-5.292 86.048l-1.38 1.061v-11.746l1.38-1.061v11.746zm-30.631-35.627l.34-1.613-11.3 6.298-.326 1.719 11.286-6.404zm76.694-36.928l.339-1.613-11.3 6.305-.325 1.712 11.286-6.404z" fill="#7675E3"/><path d="M131.693 118.914s-5.54-43.402-5.682-43.105c-.141.297-3.856 48.709-3.856 48.709l9.538-5.604z" fill="#8F9AEE"/><path d="M126.011 98.628c-2.936 1.713-5.335 5.908-5.335 9.333s2.399 4.819 5.335 3.113c2.936-1.712 5.335-5.908 5.335-9.332 0-3.425-2.399-4.826-5.335-3.114z" fill="#7675E3"/><defs><linearGradient id="paint0_linear_101_14" x1="177.342" y1="32.009" x2="177.342" y2="166.179" gradientUnits="userSpaceOnUse"><stop stop-color="#504BF9" stop-opacity="0"/><stop offset="1" stop-color="#773FFF"/></linearGradient><linearGradient id="paint1_linear_101_14" x1="63.596" y1="13.603" x2="63.596" y2="100.04" gradientUnits="userSpaceOnUse"><stop stop-color="#504BF9" stop-opacity="0"/><stop offset=".998" stop-color="#9400D5"/></linearGradient><linearGradient id="paint2_linear_101_14" x1="205.071" y1="101.103" x2="205.071" y2="187.54" gradientUnits="userSpaceOnUse"><stop stop-color="#504BF9" stop-opacity="0"/><stop offset=".998" stop-color="#9400D5"/></linearGradient><linearGradient id="paint3_linear_101_14" x1="28.616" y1="88.884" x2="28.616" y2="223.054" gradientUnits="userSpaceOnUse"><stop stop-color="#504BF9" stop-opacity="0"/><stop offset="1" stop-color="#773FFF"/></linearGradient><linearGradient id="paint4_linear_101_14" x1="47.166" y1="172.591" x2="161.156" y2="172.591" gradientUnits="userSpaceOnUse"><stop stop-color="#BF5EFF"/><stop offset="1" stop-color="#5E36FF"/></linearGradient><linearGradient id="paint5_linear_101_14" x1="94.637" y1="28.133" x2="143.453" y2="28.133" gradientUnits="userSpaceOnUse"><stop stop-color="#DFAFFF"/><stop offset="1" stop-color="#4A93FF"/></linearGradient></defs></svg>