<svg width="186" height="175" fill="none" xmlns="http://www.w3.org/2000/svg"><path d="M148.41 67.975l-40.348-23.756 11.227-6.377c.951.288 1.998.462 3.089.462 1.797 0 3.507-.418 4.807-1.169 1.491-.863 2.346-2.12 2.346-3.463 0-1.352-.82-2.574-2.32-3.437-1.291-.742-2.984-1.152-4.763-1.152-1.798 0-3.508.419-4.816 1.17-1.492.863-2.347 2.12-2.347 3.463 0 1.064.515 2.041 1.457 2.835l-13.452 7.633 40.296 23.721-60.754 33.509 53.338 31.903-47.022 26.452-32.226-18.617c.828-.768 1.29-1.71 1.29-2.696 0-1.352-.82-2.574-2.32-3.437-1.291-.742-2.983-1.152-4.763-1.152-1.797 0-3.507.419-4.816 1.169-1.492.864-2.346 2.12-2.346 3.464 0 1.352.82 2.573 2.32 3.437 1.291.741 2.984 1.151 4.763 1.151 1.3 0 2.548-.226 3.638-.628l-.06.105 34.468 19.952 51.794-29.138-53.303-31.887 60.823-33.517zM118.836 32.31c.933-.54 2.259-.855 3.62-.855 1.352 0 2.652.306 3.568.838.716.41 1.126.916 1.126 1.378 0 .471-.419.977-1.152 1.405-1.858 1.073-5.348 1.081-7.197.017-.715-.41-1.125-.916-1.125-1.378 0-.471.427-.977 1.16-1.405zM47.5 139.887c-.716-.41-1.126-.916-1.126-1.379 0-.471.419-.977 1.152-1.404.933-.541 2.26-.855 3.62-.855 1.352 0 2.652.305 3.568.837.716.41 1.126.916 1.126 1.379 0 .471-.419.977-1.152 1.404-1.85 1.082-5.339 1.091-7.188.018z" fill="url(#paint0_linear_93_232)"/><path d="M115.015 30.243c1.492-.863 2.346-2.12 2.346-3.463 0-1.352-.82-2.574-2.32-3.437-1.291-.742-2.984-1.152-4.763-1.152-1.798 0-3.507.419-4.816 1.17-1.492.863-2.347 2.12-2.347 3.463 0 1.09.541 2.085 1.527 2.887L78.165 44.708l37.783 21.784-15.572 9.116-15.093-8.986c.68-.715 1.056-1.552 1.056-2.451 0-1.344-.855-2.6-2.347-3.463-1.308-.76-3.018-1.17-4.816-1.17-1.78 0-3.472.41-4.763 1.152-1.492.864-2.32 2.085-2.32 3.437 0 1.344.855 2.609 2.346 3.464 1.309.75 3.019 1.169 4.816 1.169 1.37 0 2.678-.244 3.804-.698l17.308 10.303 20.318-11.9-37.722-21.748 23.842-13.505-.253-.436c1.082.41 2.338.636 3.638.636 1.815 0 3.516-.418 4.825-1.169zM75.643 65.532c-.733-.427-1.151-.933-1.151-1.405 0-.462.41-.96 1.125-1.378.916-.532 2.225-.838 3.568-.838 1.37 0 2.687.315 3.62.855.733.428 1.152.934 1.152 1.405 0 .462-.41.96-1.125 1.378-1.84 1.065-5.322 1.056-7.189-.017zm29.863-38.708c0-.472.418-.978 1.151-1.405.934-.54 2.26-.855 3.621-.855 1.352 0 2.652.305 3.568.838.715.41 1.125.916 1.125 1.378 0 .471-.419.977-1.151 1.404-1.859 1.074-5.348 1.082-7.198.018-.706-.419-1.116-.925-1.116-1.378z" fill="url(#paint1_linear_93_232)"/><path d="M163.023 95.612c1.78 0 3.472-.41 4.763-1.151 1.492-.864 2.321-2.085 2.321-3.438 0-1.343-.855-2.608-2.347-3.463-1.309-.75-3.019-1.169-4.807-1.169-1.78 0-3.472.41-4.763 1.152-1.492.863-2.321 2.085-2.321 3.437 0 .654.201 1.282.585 1.858l-10.495 6.308.2.331c-1.291-.724-2.957-1.125-4.711-1.125-1.779 0-3.472.41-4.763 1.151-1.492.864-2.321 2.085-2.321 3.437 0 1.344.855 2.609 2.347 3.464 1.309.759 3.019 1.169 4.816 1.169 1.78 0 3.472-.41 4.763-1.152 1.492-.863 2.321-2.085 2.321-3.437 0-.768-.288-1.518-.812-2.172l10.53-6.325c1.274.724 2.94 1.125 4.694 1.125zm-3.647-6.01c.916-.533 2.225-.838 3.577-.838 1.361 0 2.687.305 3.62.855.733.427 1.152.933 1.152 1.404 0 .463-.41.96-1.125 1.379-1.85 1.064-5.331 1.064-7.198-.018-.732-.427-1.151-.933-1.151-1.404 0-.463.41-.969 1.125-1.379zm-14.281 14.76c-1.849 1.074-5.33 1.065-7.197-.017-.733-.419-1.152-.933-1.152-1.405 0-.462.41-.959 1.126-1.378.916-.532 2.224-.837 3.568-.837 1.361 0 2.687.314 3.62.855.733.427 1.152.933 1.152 1.404.008.462-.402.968-1.117 1.378z" fill="url(#paint2_linear_93_232)"/><path d="M183.027 138.142c-1.309-.759-3.019-1.169-4.816-1.169-1.483 0-2.879.297-4.056.82l-59.707-34.294 66.921-37.932-27.402-16.314c.541-.654.829-1.404.829-2.198 0-1.344-.855-2.609-2.347-3.464-1.308-.75-3.018-1.169-4.807-1.169-1.779 0-3.472.41-4.763 1.152-1.492.864-2.32 2.085-2.32 3.437 0 1.344.854 2.609 2.346 3.464 1.309.75 3.019 1.169 4.807 1.169 1.527 0 2.966-.314 4.162-.864l24.75 14.735-66.992 37.975L172 139.311c-.567.672-.873 1.439-.873 2.26 0 1.343.855 2.608 2.347 3.463 1.309.75 3.019 1.169 4.807 1.169 1.78 0 3.472-.41 4.763-1.152 1.492-.863 2.321-2.085 2.321-3.437.009-1.343-.846-2.608-2.338-3.472zM144.1 48.407c-.732-.419-1.151-.933-1.151-1.405 0-.462.41-.96 1.125-1.378.916-.532 2.225-.838 3.577-.838 1.361 0 2.687.306 3.621.855.732.42 1.151.934 1.151 1.405 0 .462-.41.96-1.125 1.378-1.85 1.074-5.339 1.065-7.198-.017zm37.758 94.577c-1.85 1.073-5.33 1.064-7.197-.018-.733-.427-1.152-.933-1.152-1.404 0-.463.41-.96 1.125-1.379.916-.532 2.225-.837 3.569-.837 1.369 0 2.687.314 3.62.855.733.427 1.152.933 1.152 1.404.017.463-.393.969-1.117 1.379z" fill="url(#paint3_linear_93_232)"/><path d="M95.028 117.667c-1.291-.742-2.984-1.152-4.763-1.152-1.797 0-3.507.419-4.816 1.169-1.492.864-2.347 2.12-2.347 3.463 0 1.353.82 2.574 2.32 3.438 1.292.741 2.984 1.151 4.764 1.151 1.754 0 3.411-.401 4.711-1.116l10.53 6.324c-.523.655-.811 1.405-.811 2.173 0 1.352.82 2.573 2.32 3.437 1.291.742 2.984 1.152 4.764 1.152 1.797 0 3.507-.419 4.806-1.169 1.492-.864 2.347-2.12 2.347-3.464 0-1.352-.82-2.573-2.32-3.437-1.292-.742-2.984-1.152-4.764-1.152-1.753 0-3.411.402-4.711 1.117l.201-.332-10.495-6.307c.375-.576.585-1.204.585-1.858 0-1.352-.82-2.574-2.321-3.437zm-4.833 5.696c-1.352 0-2.652-.305-3.577-.837-.715-.41-1.125-.916-1.125-1.379 0-.471.418-.977 1.151-1.404.934-.541 2.26-.855 3.62-.855 1.353 0 2.653.305 3.569.837.715.41 1.125.916 1.125 1.379 0 .471-.419.977-1.151 1.404-.925.541-2.251.855-3.612.855zm17.954 8.349c.933-.541 2.259-.855 3.62-.855 1.353 0 2.652.306 3.568.838.716.41 1.126.916 1.126 1.378 0 .471-.419.977-1.152 1.405-1.858 1.073-5.348 1.081-7.197.017-.715-.41-1.125-.916-1.125-1.378.008-.463.427-.977 1.16-1.405z" fill="url(#paint4_linear_93_232)"/><path d="M.635 88.316v10.357c0 6.73 14.505 12.17 32.416 12.17 17.912 0 32.416-5.44 32.416-12.17V88.316H.636z" fill="url(#paint5_linear_93_232)"/><path d="M33.051 100.486c17.903 0 32.416-5.45 32.416-12.17 0-6.722-14.513-12.17-32.416-12.17S.635 81.594.635 88.316c0 6.72 14.513 12.17 32.416 12.17z" fill="url(#paint6_linear_93_232)"/><path d="M33.051 97.272c13.185 0 23.873-4.01 23.873-8.956S46.236 79.36 33.05 79.36c-13.184 0-23.872 4.01-23.872 8.956s10.688 8.956 23.872 8.956z" fill="url(#paint7_linear_93_232)"/><path d="M33.051 80.624c12.61 0 22.911 3.681 23.79 8.324.028-.22.083-.412.083-.632 0-4.945-10.687-8.956-23.873-8.956-13.186 0-23.872 4.011-23.872 8.956 0 .22.054.412.082.632.852-4.643 11.153-8.324 23.79-8.324z" fill="url(#paint8_linear_93_232)"/><path d="M.635 75.542v10.357c0 6.73 14.505 12.17 32.416 12.17 17.912 0 32.416-5.44 32.416-12.17V75.542H.636z" fill="url(#paint9_linear_93_232)"/><path d="M65.468 75.542c0 6.73-14.505 12.17-32.417 12.17-17.911 0-32.416-5.44-32.416-12.17 0-6.73 14.505-12.17 32.416-12.17 17.884.027 32.416 5.467 32.416 12.17z" fill="url(#paint10_linear_93_232)"/><path d="M33.051 84.498c13.185 0 23.873-4.01 23.873-8.956s-10.688-8.956-23.873-8.956c-13.184 0-23.872 4.01-23.872 8.956s10.688 8.956 23.872 8.956z" fill="url(#paint11_linear_93_232)"/><path d="M33.051 67.85c12.61 0 22.911 3.681 23.79 8.324.028-.22.083-.412.083-.632 0-4.945-10.687-8.956-23.873-8.956-13.186 0-23.872 4.011-23.872 8.956 0 .22.054.412.082.632.852-4.643 11.153-8.324 23.79-8.324z" fill="url(#paint12_linear_93_232)"/><path d="M.635 62.795v10.357c0 6.73 14.505 12.17 32.416 12.17 17.912 0 32.416-5.44 32.416-12.17V62.795H.636z" fill="url(#paint13_linear_93_232)"/><path d="M65.468 62.795c0 6.73-14.505 12.17-32.417 12.17-17.911 0-32.416-5.44-32.416-12.17 0-6.73 14.505-12.17 32.416-12.17 17.884 0 32.416 5.44 32.416 12.17z" fill="url(#paint14_linear_93_232)"/><path d="M33.051 71.75c13.185 0 23.873-4.009 23.873-8.955S46.236 53.84 33.05 53.84c-13.184 0-23.872 4.01-23.872 8.956s10.688 8.956 23.872 8.956z" fill="url(#paint15_linear_93_232)"/><path d="M33.051 55.103c12.61 0 22.911 3.681 23.79 8.324.028-.22.083-.412.083-.632 0-4.945-10.687-8.956-23.873-8.956-13.186 0-23.872 4.011-23.872 8.956 0 .22.054.412.082.632.852-4.67 11.153-8.324 23.79-8.324z" fill="url(#paint16_linear_93_232)"/><path d="M.635 50.02v10.358c0 6.73 14.505 12.17 32.416 12.17 17.912 0 32.416-5.44 32.416-12.17V50.02H.636z" fill="url(#paint17_linear_93_232)"/><path d="M65.468 50.02c0 6.731-14.505 12.17-32.417 12.17C15.14 62.19.635 56.752.635 50.02c0-6.73 14.505-12.169 32.416-12.169 17.884.027 32.416 5.467 32.416 12.17z" fill="url(#paint18_linear_93_232)"/><path d="M33.051 58.977c13.185 0 23.873-4.01 23.873-8.956s-10.688-8.956-23.873-8.956c-13.184 0-23.872 4.01-23.872 8.956s10.688 8.956 23.872 8.956z" fill="url(#paint19_linear_93_232)"/><path d="M33.051 42.329c12.61 0 22.911 3.681 23.79 8.324.028-.22.083-.412.083-.632 0-4.945-10.687-8.956-23.873-8.956-13.186 0-23.872 4.011-23.872 8.956 0 .22.054.412.082.632.852-4.643 11.153-8.324 23.79-8.324z" fill="url(#paint20_linear_93_232)"/><path d="M.635 37.274v10.357c0 6.73 14.505 12.17 32.416 12.17 17.912 0 32.416-5.44 32.416-12.17V37.274H.636z" fill="url(#paint21_linear_93_232)"/><path d="M65.468 37.274c0 6.73-14.505 12.17-32.417 12.17-17.911 0-32.416-5.44-32.416-12.17 0-6.73 14.505-12.17 32.416-12.17 17.884 0 32.416 5.44 32.416 12.17z" fill="url(#paint22_linear_93_232)"/><path d="M33.051 46.23c13.185 0 23.873-4.01 23.873-8.956s-10.688-8.956-23.873-8.956c-13.184 0-23.872 4.01-23.872 8.956S19.867 46.23 33.05 46.23z" fill="url(#paint23_linear_93_232)"/><path d="M33.051 29.582c12.61 0 22.911 3.681 23.79 8.324.028-.22.083-.412.083-.632 0-4.945-10.687-8.956-23.873-8.956-13.186 0-23.872 4.011-23.872 8.956 0 .22.054.412.082.632.852-4.67 11.153-8.324 23.79-8.324z" fill="url(#paint24_linear_93_232)"/><path d="M133.899 42.324v6.934c0 4.507 9.712 8.149 21.705 8.149 11.992 0 21.704-3.642 21.704-8.148v-6.935h-43.409z" fill="url(#paint25_linear_93_232)"/><path d="M155.604 50.472c11.987 0 21.704-3.648 21.704-8.148s-9.717-8.148-21.704-8.148c-11.988 0-21.705 3.648-21.705 8.148s9.717 8.148 21.705 8.148z" fill="url(#paint26_linear_93_232)"/><path d="M155.604 48.32c8.827 0 15.984-2.684 15.984-5.996 0-3.312-7.157-5.996-15.984-5.996-8.828 0-15.985 2.684-15.985 5.996 0 3.312 7.157 5.996 15.985 5.996z" fill="url(#paint27_linear_93_232)"/><path d="M155.604 37.174c8.442 0 15.34 2.465 15.929 5.573.018-.147.055-.276.055-.423 0-3.31-7.155-5.996-15.984-5.996s-15.985 2.685-15.985 5.996c0 .147.037.276.056.423.57-3.108 7.467-5.573 15.929-5.573z" fill="url(#paint28_linear_93_232)"/><path d="M133.899 33.771v6.935c0 4.506 9.712 8.148 21.705 8.148 11.992 0 21.704-3.642 21.704-8.148V33.77h-43.409z" fill="url(#paint29_linear_93_232)"/><path d="M177.308 33.77c0 4.507-9.712 8.15-21.704 8.15-11.993 0-21.705-3.643-21.705-8.15 0-4.506 9.712-8.148 21.705-8.148 11.974.019 21.704 3.66 21.704 8.149z" fill="url(#paint30_linear_93_232)"/><path d="M155.604 39.767c8.827 0 15.984-2.684 15.984-5.996 0-3.312-7.157-5.996-15.984-5.996-8.828 0-15.985 2.684-15.985 5.996 0 3.312 7.157 5.996 15.985 5.996z" fill="url(#paint31_linear_93_232)"/><path d="M155.604 28.62c8.442 0 15.34 2.466 15.929 5.574.018-.147.055-.276.055-.423 0-3.31-7.155-5.996-15.984-5.996s-15.985 2.685-15.985 5.996c0 .147.037.276.056.423.57-3.108 7.467-5.573 15.929-5.573z" fill="url(#paint32_linear_93_232)"/><path d="M133.899 25.236v6.935c0 4.506 9.712 8.148 21.705 8.148 11.992 0 21.704-3.642 21.704-8.148v-6.935h-43.409z" fill="url(#paint33_linear_93_232)"/><path d="M177.308 25.236c0 4.507-9.712 8.149-21.704 8.149-11.993 0-21.705-3.642-21.705-8.149 0-4.506 9.712-8.148 21.705-8.148 11.974 0 21.704 3.642 21.704 8.148z" fill="url(#paint34_linear_93_232)"/><path d="M155.604 31.233c8.827 0 15.984-2.685 15.984-5.997 0-3.311-7.157-5.996-15.984-5.996-8.828 0-15.985 2.685-15.985 5.996 0 3.312 7.157 5.997 15.985 5.997z" fill="url(#paint35_linear_93_232)"/><path d="M155.604 20.086c8.442 0 15.34 2.465 15.929 5.573.018-.147.055-.275.055-.423 0-3.31-7.155-5.996-15.984-5.996s-15.985 2.686-15.985 5.996c0 .148.037.276.056.423.57-3.127 7.467-5.573 15.929-5.573z" fill="url(#paint36_linear_93_232)"/><path d="M133.899 16.683v6.935c0 4.506 9.712 8.148 21.705 8.148 11.992 0 21.704-3.642 21.704-8.148v-6.935h-43.409z" fill="url(#paint37_linear_93_232)"/><path d="M177.308 16.683c0 4.507-9.712 8.149-21.704 8.149-11.993 0-21.705-3.642-21.705-8.149 0-4.506 9.712-8.148 21.705-8.148 11.974.018 21.704 3.66 21.704 8.148z" fill="url(#paint38_linear_93_232)"/><path d="M155.604 22.68c8.827 0 15.984-2.685 15.984-5.997 0-3.311-7.157-5.996-15.984-5.996-8.828 0-15.985 2.685-15.985 5.996 0 3.312 7.157 5.997 15.985 5.997z" fill="url(#paint39_linear_93_232)"/><path d="M155.604 11.533c8.442 0 15.34 2.465 15.929 5.573.018-.147.055-.276.055-.423 0-3.31-7.155-5.996-15.984-5.996s-15.985 2.685-15.985 5.996c0 .147.037.276.056.423.57-3.108 7.467-5.573 15.929-5.573z" fill="url(#paint40_linear_93_232)"/><path d="M133.899 8.149v6.934c0 4.506 9.712 8.148 21.705 8.148 11.992 0 21.704-3.642 21.704-8.148V8.149h-43.409z" fill="url(#paint41_linear_93_232)"/><path d="M177.308 8.148c0 4.507-9.712 8.149-21.704 8.149-11.993 0-21.705-3.642-21.705-8.149 0-4.506 9.712-8.148 21.705-8.148 11.974 0 21.704 3.642 21.704 8.148z" fill="url(#paint42_linear_93_232)"/><path d="M155.604 14.145c8.827 0 15.984-2.685 15.984-5.996 0-3.312-7.157-5.997-15.984-5.997-8.828 0-15.985 2.685-15.985 5.997 0 3.311 7.157 5.996 15.985 5.996z" fill="url(#paint43_linear_93_232)"/><path d="M155.604 2.998c8.442 0 15.34 2.465 15.929 5.574.018-.148.055-.276.055-.423 0-3.311-7.155-5.997-15.984-5.997s-15.985 2.686-15.985 5.997c0 .147.037.275.056.423.57-3.127 7.467-5.574 15.929-5.574z" fill="url(#paint44_linear_93_232)"/><path d="M120.871 159.917v6.935c0 4.506 9.712 8.148 21.704 8.148 11.993 0 21.705-3.642 21.705-8.148v-6.935h-43.409z" fill="url(#paint45_linear_93_232)"/><path d="M142.575 168.065c11.987 0 21.705-3.648 21.705-8.148s-9.718-8.148-21.705-8.148c-11.987 0-21.704 3.648-21.704 8.148s9.717 8.148 21.704 8.148z" fill="url(#paint46_linear_93_232)"/><path d="M142.575 165.914c8.828 0 15.984-2.685 15.984-5.997 0-3.311-7.156-5.996-15.984-5.996-8.827 0-15.984 2.685-15.984 5.996 0 3.312 7.157 5.997 15.984 5.997z" fill="url(#paint47_linear_93_232)"/><path d="M142.575 154.767c8.443 0 15.341 2.465 15.929 5.573.019-.147.055-.276.055-.423 0-3.311-7.155-5.996-15.984-5.996s-15.984 2.685-15.984 5.996c0 .147.037.276.055.423.571-3.108 7.468-5.573 15.929-5.573z" fill="url(#paint48_linear_93_232)"/><path d="M120.871 151.364v6.935c0 4.506 9.712 8.148 21.704 8.148 11.993 0 21.705-3.642 21.705-8.148v-6.935h-43.409z" fill="url(#paint49_linear_93_232)"/><path d="M164.28 151.364c0 4.507-9.712 8.149-21.705 8.149-11.992 0-21.704-3.642-21.704-8.149 0-4.506 9.712-8.148 21.704-8.148 11.975.018 21.705 3.66 21.705 8.148z" fill="url(#paint50_linear_93_232)"/><path d="M142.575 157.361c8.828 0 15.984-2.685 15.984-5.997 0-3.311-7.156-5.996-15.984-5.996-8.827 0-15.984 2.685-15.984 5.996 0 3.312 7.157 5.997 15.984 5.997z" fill="url(#paint51_linear_93_232)"/><path d="M142.575 146.214c8.443 0 15.341 2.465 15.929 5.573.019-.147.055-.275.055-.423 0-3.31-7.155-5.996-15.984-5.996s-15.984 2.686-15.984 5.996c0 .148.037.276.055.423.571-3.108 7.468-5.573 15.929-5.573z" fill="url(#paint52_linear_93_232)"/><path d="M120.871 142.83v6.934c0 4.507 9.712 8.149 21.704 8.149 11.993 0 21.705-3.642 21.705-8.149v-6.934h-43.409z" fill="url(#paint53_linear_93_232)"/><path d="M164.28 142.829c0 4.507-9.712 8.149-21.705 8.149-11.992 0-21.704-3.642-21.704-8.149 0-4.506 9.712-8.148 21.704-8.148 11.975 0 21.705 3.642 21.705 8.148z" fill="url(#paint54_linear_93_232)"/><path d="M142.575 148.826c8.828 0 15.984-2.685 15.984-5.996 0-3.312-7.156-5.997-15.984-5.997-8.827 0-15.984 2.685-15.984 5.997 0 3.311 7.157 5.996 15.984 5.996z" fill="url(#paint55_linear_93_232)"/><path d="M142.575 137.679c8.443 0 15.341 2.465 15.929 5.574.019-.147.055-.276.055-.423 0-3.311-7.155-5.997-15.984-5.997s-15.984 2.686-15.984 5.997c0 .147.037.276.055.423.571-3.127 7.468-5.574 15.929-5.574z" fill="url(#paint56_linear_93_232)"/><path d="M120.871 134.276v6.935c0 4.506 9.712 8.148 21.704 8.148 11.993 0 21.705-3.642 21.705-8.148v-6.935h-43.409z" fill="url(#paint57_linear_93_232)"/><path d="M164.28 134.276c0 4.507-9.712 8.149-21.705 8.149-11.992 0-21.704-3.642-21.704-8.149 0-4.506 9.712-8.148 21.704-8.148 11.975.018 21.705 3.66 21.705 8.148z" fill="url(#paint58_linear_93_232)"/><path d="M142.575 140.273c8.828 0 15.984-2.685 15.984-5.997 0-3.311-7.156-5.996-15.984-5.996-8.827 0-15.984 2.685-15.984 5.996 0 3.312 7.157 5.997 15.984 5.997z" fill="url(#paint59_linear_93_232)"/><path d="M142.575 129.126c8.443 0 15.341 2.465 15.929 5.573.019-.147.055-.276.055-.423 0-3.311-7.155-5.996-15.984-5.996s-15.984 2.685-15.984 5.996c0 .147.037.276.055.423.571-3.108 7.468-5.573 15.929-5.573z" fill="url(#paint60_linear_93_232)"/><path d="M120.871 125.742v6.934c0 4.507 9.712 8.149 21.704 8.149 11.993 0 21.705-3.642 21.705-8.149v-6.934h-43.409z" fill="url(#paint61_linear_93_232)"/><path d="M164.28 125.742c0 4.506-9.712 8.148-21.705 8.148-11.992 0-21.704-3.642-21.704-8.148 0-4.507 9.712-8.149 21.704-8.149 11.975 0 21.705 3.642 21.705 8.149z" fill="url(#paint62_linear_93_232)"/><path d="M142.575 131.738c8.828 0 15.984-2.685 15.984-5.996 0-3.312-7.156-5.997-15.984-5.997-8.827 0-15.984 2.685-15.984 5.997 0 3.311 7.157 5.996 15.984 5.996z" fill="url(#paint63_linear_93_232)"/><path d="M142.575 120.591c8.443 0 15.341 2.465 15.929 5.574.019-.147.055-.276.055-.423 0-3.311-7.155-5.997-15.984-5.997s-15.984 2.686-15.984 5.997c0 .147.037.276.055.423.571-3.127 7.468-5.574 15.929-5.574z" fill="url(#paint64_linear_93_232)"/><defs><linearGradient id="paint1_linear_93_232" x1="72.093" y1="78.365" x2="120.685" y2="78.365" gradientUnits="userSpaceOnUse"><stop stop-color="#8300DA"/><stop offset="1" stop-color="#2500B9"/></linearGradient><linearGradient id="paint32_linear_93_232" x1="180.17" y1="30.991" x2="138.095" y2="30.991" gradientUnits="userSpaceOnUse"><stop stop-color="#2B2CE0"/><stop offset="1" stop-color="#F903FF"/></linearGradient><linearGradient id="paint2_linear_93_232" x1="134.364" y1="107.573" x2="170.107" y2="107.573" gradientUnits="userSpaceOnUse"><stop stop-color="#8300DA"/><stop offset="1" stop-color="#2500B9"/></linearGradient><linearGradient id="paint3_linear_93_232" x1="109.632" y1="146.203" x2="185.365" y2="146.203" gradientUnits="userSpaceOnUse"><stop stop-color="#8300DA"/><stop offset="1" stop-color="#2500B9"/></linearGradient><linearGradient id="paint4_linear_93_232" x1="83.102" y1="137.706" x2="118.853" y2="137.706" gradientUnits="userSpaceOnUse"><stop stop-color="#8300DA"/><stop offset="1" stop-color="#2500B9"/></linearGradient><linearGradient id="paint5_linear_93_232" x1=".635" y1="110.843" x2="65.468" y2="110.843" gradientUnits="userSpaceOnUse"><stop stop-color="#A142EA"/><stop offset="1" stop-color="#3415E8"/></linearGradient><linearGradient id="paint6_linear_93_232" x1="76.684" y1="88.316" x2="-2.31" y2="88.316" gradientUnits="userSpaceOnUse"><stop stop-color="#FF40FF"/><stop offset="1" stop-color="#9169FF"/></linearGradient><linearGradient id="paint7_linear_93_232" x1="52.035" y1="88.316" x2="-13.592" y2="88.316" gradientUnits="userSpaceOnUse"><stop stop-color="#FF40FF"/><stop offset="1" stop-color="#9169FF"/></linearGradient><linearGradient id="paint8_linear_93_232" x1="69.741" y1="84.15" x2="6.902" y2="84.15" gradientUnits="userSpaceOnUse"><stop stop-color="#2B2CE0"/><stop offset="1" stop-color="#F903FF"/></linearGradient><linearGradient id="paint9_linear_93_232" x1=".635" y1="98.069" x2="65.468" y2="98.069" gradientUnits="userSpaceOnUse"><stop stop-color="#A142EA"/><stop offset="1" stop-color="#3415E8"/></linearGradient><linearGradient id="paint10_linear_93_232" x1="76.684" y1="75.555" x2="-2.31" y2="75.555" gradientUnits="userSpaceOnUse"><stop stop-color="#FF40FF"/><stop offset="1" stop-color="#9169FF"/></linearGradient><linearGradient id="paint11_linear_93_232" x1="52.035" y1="75.556" x2="-13.592" y2="75.556" gradientUnits="userSpaceOnUse"><stop stop-color="#FF40FF"/><stop offset="1" stop-color="#9169FF"/></linearGradient><linearGradient id="paint12_linear_93_232" x1="69.741" y1="71.389" x2="6.902" y2="71.389" gradientUnits="userSpaceOnUse"><stop stop-color="#2B2CE0"/><stop offset="1" stop-color="#F903FF"/></linearGradient><linearGradient id="paint13_linear_93_232" x1=".635" y1="85.322" x2="65.468" y2="85.322" gradientUnits="userSpaceOnUse"><stop stop-color="#A142EA"/><stop offset="1" stop-color="#3415E8"/></linearGradient><linearGradient id="paint14_linear_93_232" x1="76.684" y1="62.795" x2="-2.31" y2="62.795" gradientUnits="userSpaceOnUse"><stop stop-color="#FF40FF"/><stop offset="1" stop-color="#9169FF"/></linearGradient><linearGradient id="paint15_linear_93_232" x1="52.035" y1="62.795" x2="-13.592" y2="62.795" gradientUnits="userSpaceOnUse"><stop stop-color="#FF40FF"/><stop offset="1" stop-color="#9169FF"/></linearGradient><linearGradient id="paint16_linear_93_232" x1="69.741" y1="58.628" x2="6.902" y2="58.628" gradientUnits="userSpaceOnUse"><stop stop-color="#2B2CE0"/><stop offset="1" stop-color="#F903FF"/></linearGradient><linearGradient id="paint17_linear_93_232" x1=".635" y1="72.547" x2="65.468" y2="72.547" gradientUnits="userSpaceOnUse"><stop stop-color="#A142EA"/><stop offset="1" stop-color="#3415E8"/></linearGradient><linearGradient id="paint18_linear_93_232" x1="76.684" y1="50.034" x2="-2.31" y2="50.034" gradientUnits="userSpaceOnUse"><stop stop-color="#FF40FF"/><stop offset="1" stop-color="#9169FF"/></linearGradient><linearGradient id="paint19_linear_93_232" x1="52.035" y1="50.034" x2="-13.592" y2="50.034" gradientUnits="userSpaceOnUse"><stop stop-color="#FF40FF"/><stop offset="1" stop-color="#9169FF"/></linearGradient><linearGradient id="paint20_linear_93_232" x1="69.741" y1="45.867" x2="6.902" y2="45.867" gradientUnits="userSpaceOnUse"><stop stop-color="#2B2CE0"/><stop offset="1" stop-color="#F903FF"/></linearGradient><linearGradient id="paint21_linear_93_232" x1=".635" y1="59.801" x2="65.468" y2="59.801" gradientUnits="userSpaceOnUse"><stop stop-color="#A142EA"/><stop offset="1" stop-color="#3415E8"/></linearGradient><linearGradient id="paint22_linear_93_232" x1="76.684" y1="37.273" x2="-2.31" y2="37.273" gradientUnits="userSpaceOnUse"><stop stop-color="#FF40FF"/><stop offset="1" stop-color="#9169FF"/></linearGradient><linearGradient id="paint23_linear_93_232" x1="9.179" y1="46.23" x2="56.924" y2="46.23" gradientUnits="userSpaceOnUse"><stop stop-color="#BF5EFF"/><stop offset="1" stop-color="#5E36FF"/></linearGradient><linearGradient id="paint24_linear_93_232" x1="69.741" y1="33.107" x2="6.902" y2="33.107" gradientUnits="userSpaceOnUse"><stop stop-color="#2B2CE0"/><stop offset="1" stop-color="#F903FF"/></linearGradient><linearGradient id="paint25_linear_93_232" x1="133.899" y1="57.407" x2="177.308" y2="57.407" gradientUnits="userSpaceOnUse"><stop stop-color="#A142EA"/><stop offset="1" stop-color="#3415E8"/></linearGradient><linearGradient id="paint26_linear_93_232" x1="184.819" y1="42.324" x2="131.927" y2="42.324" gradientUnits="userSpaceOnUse"><stop stop-color="#FF40FF"/><stop offset="1" stop-color="#9169FF"/></linearGradient><linearGradient id="paint27_linear_93_232" x1="168.314" y1="42.324" x2="124.373" y2="42.324" gradientUnits="userSpaceOnUse"><stop stop-color="#FF40FF"/><stop offset="1" stop-color="#9169FF"/></linearGradient><linearGradient id="paint28_linear_93_232" x1="180.17" y1="39.535" x2="138.095" y2="39.535" gradientUnits="userSpaceOnUse"><stop stop-color="#2B2CE0"/><stop offset="1" stop-color="#F903FF"/></linearGradient><linearGradient id="paint29_linear_93_232" x1="133.899" y1="48.854" x2="177.308" y2="48.854" gradientUnits="userSpaceOnUse"><stop stop-color="#A142EA"/><stop offset="1" stop-color="#3415E8"/></linearGradient><linearGradient id="paint30_linear_93_232" x1="184.819" y1="33.78" x2="131.927" y2="33.78" gradientUnits="userSpaceOnUse"><stop stop-color="#FF40FF"/><stop offset="1" stop-color="#9169FF"/></linearGradient><linearGradient id="paint31_linear_93_232" x1="168.314" y1="33.78" x2="124.373" y2="33.78" gradientUnits="userSpaceOnUse"><stop stop-color="#FF40FF"/><stop offset="1" stop-color="#9169FF"/></linearGradient><linearGradient id="paint0_linear_93_232" x1="43.967" y1="162.517" x2="148.41" y2="162.517" gradientUnits="userSpaceOnUse"><stop stop-color="#BF5EFF"/><stop offset="1" stop-color="#5E36FF"/></linearGradient><linearGradient id="paint33_linear_93_232" x1="133.899" y1="40.319" x2="177.308" y2="40.319" gradientUnits="userSpaceOnUse"><stop stop-color="#A142EA"/><stop offset="1" stop-color="#3415E8"/></linearGradient><linearGradient id="paint34_linear_93_232" x1="184.819" y1="25.236" x2="131.927" y2="25.236" gradientUnits="userSpaceOnUse"><stop stop-color="#FF40FF"/><stop offset="1" stop-color="#9169FF"/></linearGradient><linearGradient id="paint35_linear_93_232" x1="168.314" y1="25.236" x2="124.373" y2="25.236" gradientUnits="userSpaceOnUse"><stop stop-color="#FF40FF"/><stop offset="1" stop-color="#9169FF"/></linearGradient><linearGradient id="paint36_linear_93_232" x1="180.17" y1="22.446" x2="138.095" y2="22.446" gradientUnits="userSpaceOnUse"><stop stop-color="#2B2CE0"/><stop offset="1" stop-color="#F903FF"/></linearGradient><linearGradient id="paint37_linear_93_232" x1="133.899" y1="31.766" x2="177.308" y2="31.766" gradientUnits="userSpaceOnUse"><stop stop-color="#A142EA"/><stop offset="1" stop-color="#3415E8"/></linearGradient><linearGradient id="paint38_linear_93_232" x1="184.819" y1="16.692" x2="131.927" y2="16.692" gradientUnits="userSpaceOnUse"><stop stop-color="#FF40FF"/><stop offset="1" stop-color="#9169FF"/></linearGradient><linearGradient id="paint39_linear_93_232" x1="168.314" y1="16.692" x2="124.373" y2="16.692" gradientUnits="userSpaceOnUse"><stop stop-color="#FF40FF"/><stop offset="1" stop-color="#9169FF"/></linearGradient><linearGradient id="paint40_linear_93_232" x1="180.17" y1="13.902" x2="138.095" y2="13.902" gradientUnits="userSpaceOnUse"><stop stop-color="#2B2CE0"/><stop offset="1" stop-color="#F903FF"/></linearGradient><linearGradient id="paint41_linear_93_232" x1="133.899" y1="23.231" x2="177.308" y2="23.231" gradientUnits="userSpaceOnUse"><stop stop-color="#A142EA"/><stop offset="1" stop-color="#3415E8"/></linearGradient><linearGradient id="paint42_linear_93_232" x1="184.819" y1="8.148" x2="131.927" y2="8.148" gradientUnits="userSpaceOnUse"><stop stop-color="#FF40FF"/><stop offset="1" stop-color="#9169FF"/></linearGradient><linearGradient id="paint43_linear_93_232" x1="139.619" y1="14.145" x2="171.588" y2="14.145" gradientUnits="userSpaceOnUse"><stop stop-color="#BF5EFF"/><stop offset="1" stop-color="#5E36FF"/></linearGradient><linearGradient id="paint44_linear_93_232" x1="180.17" y1="5.358" x2="138.095" y2="5.358" gradientUnits="userSpaceOnUse"><stop stop-color="#2B2CE0"/><stop offset="1" stop-color="#F903FF"/></linearGradient><linearGradient id="paint45_linear_93_232" x1="120.871" y1="175" x2="164.28" y2="175" gradientUnits="userSpaceOnUse"><stop stop-color="#A142EA"/><stop offset="1" stop-color="#3415E8"/></linearGradient><linearGradient id="paint46_linear_93_232" x1="171.79" y1="159.917" x2="118.899" y2="159.917" gradientUnits="userSpaceOnUse"><stop stop-color="#FF40FF"/><stop offset="1" stop-color="#9169FF"/></linearGradient><linearGradient id="paint47_linear_93_232" x1="155.286" y1="159.917" x2="111.345" y2="159.917" gradientUnits="userSpaceOnUse"><stop stop-color="#FF40FF"/><stop offset="1" stop-color="#9169FF"/></linearGradient><linearGradient id="paint48_linear_93_232" x1="167.141" y1="157.128" x2="125.067" y2="157.128" gradientUnits="userSpaceOnUse"><stop stop-color="#2B2CE0"/><stop offset="1" stop-color="#F903FF"/></linearGradient><linearGradient id="paint49_linear_93_232" x1="120.871" y1="166.447" x2="164.28" y2="166.447" gradientUnits="userSpaceOnUse"><stop stop-color="#A142EA"/><stop offset="1" stop-color="#3415E8"/></linearGradient><linearGradient id="paint50_linear_93_232" x1="171.79" y1="151.373" x2="118.899" y2="151.373" gradientUnits="userSpaceOnUse"><stop stop-color="#FF40FF"/><stop offset="1" stop-color="#9169FF"/></linearGradient><linearGradient id="paint51_linear_93_232" x1="155.286" y1="151.374" x2="111.345" y2="151.374" gradientUnits="userSpaceOnUse"><stop stop-color="#FF40FF"/><stop offset="1" stop-color="#9169FF"/></linearGradient><linearGradient id="paint52_linear_93_232" x1="167.141" y1="148.584" x2="125.067" y2="148.584" gradientUnits="userSpaceOnUse"><stop stop-color="#2B2CE0"/><stop offset="1" stop-color="#F903FF"/></linearGradient><linearGradient id="paint53_linear_93_232" x1="120.871" y1="157.913" x2="164.28" y2="157.913" gradientUnits="userSpaceOnUse"><stop stop-color="#A142EA"/><stop offset="1" stop-color="#3415E8"/></linearGradient><linearGradient id="paint54_linear_93_232" x1="171.79" y1="142.829" x2="118.899" y2="142.829" gradientUnits="userSpaceOnUse"><stop stop-color="#FF40FF"/><stop offset="1" stop-color="#9169FF"/></linearGradient><linearGradient id="paint55_linear_93_232" x1="155.286" y1="142.83" x2="111.345" y2="142.83" gradientUnits="userSpaceOnUse"><stop stop-color="#FF40FF"/><stop offset="1" stop-color="#9169FF"/></linearGradient><linearGradient id="paint56_linear_93_232" x1="167.141" y1="140.04" x2="125.067" y2="140.04" gradientUnits="userSpaceOnUse"><stop stop-color="#2B2CE0"/><stop offset="1" stop-color="#F903FF"/></linearGradient><linearGradient id="paint57_linear_93_232" x1="120.871" y1="149.359" x2="164.28" y2="149.359" gradientUnits="userSpaceOnUse"><stop stop-color="#A142EA"/><stop offset="1" stop-color="#3415E8"/></linearGradient><linearGradient id="paint58_linear_93_232" x1="171.79" y1="134.285" x2="118.899" y2="134.285" gradientUnits="userSpaceOnUse"><stop stop-color="#FF40FF"/><stop offset="1" stop-color="#9169FF"/></linearGradient><linearGradient id="paint59_linear_93_232" x1="155.286" y1="134.285" x2="111.345" y2="134.285" gradientUnits="userSpaceOnUse"><stop stop-color="#FF40FF"/><stop offset="1" stop-color="#9169FF"/></linearGradient><linearGradient id="paint60_linear_93_232" x1="167.141" y1="131.495" x2="125.067" y2="131.495" gradientUnits="userSpaceOnUse"><stop stop-color="#2B2CE0"/><stop offset="1" stop-color="#F903FF"/></linearGradient><linearGradient id="paint61_linear_93_232" x1="120.871" y1="140.825" x2="164.28" y2="140.825" gradientUnits="userSpaceOnUse"><stop stop-color="#A142EA"/><stop offset="1" stop-color="#3415E8"/></linearGradient><linearGradient id="paint62_linear_93_232" x1="171.79" y1="125.741" x2="118.899" y2="125.741" gradientUnits="userSpaceOnUse"><stop stop-color="#FF40FF"/><stop offset="1" stop-color="#9169FF"/></linearGradient><linearGradient id="paint63_linear_93_232" x1="126.591" y1="131.738" x2="158.559" y2="131.738" gradientUnits="userSpaceOnUse"><stop stop-color="#BF5EFF"/><stop offset="1" stop-color="#5E36FF"/></linearGradient><linearGradient id="paint64_linear_93_232" x1="167.141" y1="122.951" x2="125.067" y2="122.951" gradientUnits="userSpaceOnUse"><stop stop-color="#2B2CE0"/><stop offset="1" stop-color="#F903FF"/></linearGradient></defs></svg>