<svg width="41" height="30" fill="none" xmlns="http://www.w3.org/2000/svg"><path d="M34.68 2.57S31.34.33 26.05 0l-.734 2.092c.007-.013-2.35-.367-2.5-.38-1.331-.13-2.755-.117-4.09-.014-.157.014-2.514.391-2.514.394L15.48 0c-5.29.33-8.63 2.57-8.63 2.57-7.897 12.193-5.767 22.216-5.767 22.216C3.727 27.578 11.328 30 11.328 30l2.02-3.526-3.23-1.468.476-.954c2.778 1.39 5.958 2.15 9.059 2.316 2.771.147 5.605-.278 8.246-1.105a21.039 21.039 0 001.54-.545c.144-.059 1.458-.707 1.496-.67l.477.954-3.232 1.468 2.02 3.527s7.602-2.425 10.247-5.214c0 .007 2.13-10.02-5.767-22.214zM14.192 20.271c-1.982 0-3.591-1.75-3.591-3.91 0-2.161 1.608-3.91 3.591-3.91s3.591 1.752 3.591 3.91c0 2.157-1.608 3.91-3.59 3.91zm13.145 0c-1.983 0-3.592-1.75-3.592-3.91 0-2.161 1.609-3.91 3.591-3.91 1.983 0 3.592 1.752 3.592 3.91-.004 2.157-1.609 3.91-3.591 3.91z" fill="url(#paint0_linear_9_10)"/><defs><linearGradient id="paint0_linear_9_10" x1=".821" y1="30" x2="40.708" y2="30" gradientUnits="userSpaceOnUse"><stop stop-color="#BF5EFF"/><stop offset="1" stop-color="#5E36FF"/></linearGradient></defs></svg>