<svg width="24" height="30" fill="none" xmlns="http://www.w3.org/2000/svg"><path d="M22.747 9.35c-1.06-1.307-4.619-4.506-4.619-4.506s-3.004-2.671-3.952-3.563C13.232.39 12.006 0 12.006 0H.709v30h23.264V12.078s-.277-1.558-1.225-2.727zm-.39 18.923H2.38V1.671h7.93c.889.122 1.886.541 1.975 1.78.152 2.056 0 6.9 0 6.9s6.455.056 7.234.056c.78 0 2.671.667 2.728 2.45.006.225.046.446.112.66v14.756z" fill="url(#paint0_linear_9_14)"/><defs><linearGradient id="paint0_linear_9_14" x1=".708" y1="30" x2="23.972" y2="30" gradientUnits="userSpaceOnUse"><stop stop-color="#BF5EFF"/><stop offset="1" stop-color="#5E36FF"/></linearGradient></defs></svg>