<svg width="185" height="185" fill="none" xmlns="http://www.w3.org/2000/svg"><circle cx="92.5" cy="92.5" r="91" stroke="url(#paint0_linear_23_42)" stroke-width="3"/><path d="M132.672 44H52.909A3.91 3.91 0 0049 47.911a3.91 3.91 0 003.909 3.911h79.763a3.909 3.909 0 003.908-3.91A3.918 3.918 0 00132.672 44z" fill="url(#paint1_linear_23_42)"/><path d="M132.672 134.178H52.909A3.909 3.909 0 0049 138.089 3.91 3.91 0 0052.909 142h79.763a3.91 3.91 0 003.908-3.911 3.917 3.917 0 00-3.908-3.911z" fill="url(#paint2_linear_23_42)"/><path d="M103.11 56.143H55.818v11.525c0 11.532 8.254 21.125 19.168 23.223a20.69 20.69 0 004.478.494 19.5 19.5 0 001.569-.07l-.132.07 27.277-.174v.028c.091-.007.181-.021.271-.028h.035l.014-.007c11.934-1.202 21.258-11.268 21.258-23.53v-11.53H103.11zM92.78 83.826c-3.562-3.181-5.908-7.745-6.533-12.928h13.087v.035c-.64 5.168-3 9.719-6.554 12.893z" fill="url(#paint3_linear_23_42)"/><path d="M108.178 94.768v.007H81.567c-.013 0-.027-.007-.041-.007l-2.604.007h-1.54c-12.088 1.049-21.578 11.191-21.578 23.557v11.525h73.938v-11.525c.014-12.372-9.47-22.515-21.564-23.564zm-7.9 32.977H84.581v-3.619l7.852-6.808 7.852 6.808v3.619h-.007z" fill="url(#paint4_linear_23_42)"/><path d="M132.672 141.993H79.554a3.91 3.91 0 01-3.909-3.911 3.91 3.91 0 013.91-3.911h53.117a3.91 3.91 0 013.908 3.911 3.918 3.918 0 01-3.908 3.911z" fill="url(#paint5_linear_23_42)"/><path d="M79.554 44h53.118a3.909 3.909 0 013.908 3.911 3.909 3.909 0 01-3.908 3.911H79.554a3.91 3.91 0 01-3.909-3.91A3.91 3.91 0 0179.555 44z" fill="url(#paint6_linear_23_42)"/><path d="M108.178 94.768v13.046c.188.174.389.396.702.667l18.043 15.652v3.619h-42.35v-3.619l18.044-15.652c.667-.576.778-.931 1.417-1.07V94.775c-12.08 1.049-21.57 11.185-21.57 23.557v11.525h47.292v-11.525c0-12.372-9.484-22.515-21.578-23.564z" fill="url(#paint7_linear_23_42)"/><path d="M82.463 56.143v11.525c0 12.372 9.49 22.508 21.578 23.557V88.46c-9.685-.556-16.649-8.017-17.801-17.562h39.739c-1.152 9.538-8.157 17-17.801 17.555v2.779c12.087-1.05 21.578-11.198 21.578-23.564V56.143H82.463z" fill="url(#paint8_linear_23_42)"/><defs><linearGradient id="paint0_linear_23_42" x1="0" y1="185" x2="185" y2="185" gradientUnits="userSpaceOnUse"><stop stop-color="#DFAFFF"/><stop offset="1" stop-color="#4A93FF"/></linearGradient><linearGradient id="paint1_linear_23_42" x1="67.984" y1="29.487" x2="149.52" y2="89.966" gradientUnits="userSpaceOnUse"><stop offset="0" stop-color="#BF5EFF"/><stop offset="1" stop-color="#5E36FF"/></linearGradient><linearGradient id="paint2_linear_23_42" x1="24.854" y1="87.632" x2="106.389" y2="148.112" gradientUnits="userSpaceOnUse"><stop offset="0" stop-color="#BF5EFF"/><stop offset="1" stop-color="#5E36FF"/></linearGradient><linearGradient id="paint3_linear_23_42" x1="58.447" y1="42.344" x2="139.983" y2="102.823" gradientUnits="userSpaceOnUse"><stop offset="0" stop-color="#BF5EFF"/><stop offset="1" stop-color="#5E36FF"/></linearGradient><linearGradient id="paint4_linear_23_42" x1="34.393" y1="74.772" x2="115.928" y2="135.252" gradientUnits="userSpaceOnUse"><stop offset="0" stop-color="#BF5EFF"/><stop offset="1" stop-color="#5E36FF"/></linearGradient><linearGradient id="paint5_linear_23_42" x1="78.065" y1="138.086" x2="135.997" y2="138.086" gradientUnits="userSpaceOnUse"><stop offset="0" stop-color="#DFAFFF"/><stop offset="1" stop-color="#4A93FF"/></linearGradient><linearGradient id="paint6_linear_23_42" x1="78.065" y1="47.908" x2="135.997" y2="47.908" gradientUnits="userSpaceOnUse"><stop offset="0" stop-color="#DFAFFF"/><stop offset="1" stop-color="#4A93FF"/></linearGradient><linearGradient id="paint7_linear_23_42" x1="78.065" y1="112.309" x2="135.997" y2="112.309" gradientUnits="userSpaceOnUse"><stop offset="0" stop-color="#DFAFFF"/><stop offset="1" stop-color="#4A93FF"/></linearGradient><linearGradient id="paint8_linear_23_42" x1="78.065" y1="73.685" x2="135.997" y2="73.685" gradientUnits="userSpaceOnUse"><stop offset="0" stop-color="#DFAFFF"/><stop offset="1" stop-color="#4A93FF"/></linearGradient></defs></svg>