<svg width="185" height="185" fill="none" xmlns="http://www.w3.org/2000/svg"><circle cx="92.5" cy="92.5" r="91" stroke="url(#paint0_linear_23_33)" stroke-width="3"/><path d="M132.541 93.14l-8.049-14.293L105.353 44H79.164L51.48 93.14c-3.655 6.49-5.147 13.825-4.206 20.658 2.176 15.696 14.982 27.546 30.452 28.174.474.021.948.028 1.43.028h25.262l-.007-.007c.628.007 1.255.007 1.883-.021 15.47-.628 28.282-12.478 30.458-28.174.942-6.833-.557-14.168-4.212-20.658zm-27.676 44.833a3.6 3.6 0 01-3.599-3.601c0-.635.182-1.221.468-1.738.418-.419.83-.858 1.227-1.305a3.56 3.56 0 011.904-.558c11.397 0 20.673-9.275 20.673-20.686a3.6 3.6 0 117.198 0c0 15.382-12.506 27.888-27.871 27.888z" fill="url(#paint1_linear_23_33)"/><path d="M132.541 93.14L104.865 44 77.19 93.14c-3.655 6.49-5.148 13.825-4.206 20.658 2.176 15.696 14.982 27.546 30.451 28.174.949.035 1.904.035 2.853 0 15.47-.628 28.282-12.478 30.458-28.174.949-6.833-.551-14.168-4.205-20.658zm-27.676 44.833a3.6 3.6 0 01-3.599-3.601 3.6 3.6 0 013.599-3.601c11.397 0 20.673-9.275 20.673-20.686a3.6 3.6 0 117.198 0c0 15.382-12.506 27.888-27.871 27.888z" fill="url(#paint2_linear_23_33)"/><defs><linearGradient id="paint0_linear_23_33" x1="0" y1="185" x2="185" y2="185" gradientUnits="userSpaceOnUse"><stop stop-color="#DFAFFF"/><stop offset="1" stop-color="#4A93FF"/></linearGradient><linearGradient id="paint1_linear_23_33" x1="58.351" y1="63.125" x2="115.522" y2="126.812" gradientUnits="userSpaceOnUse"><stop offset="0" stop-color="#BF5EFF"/><stop offset="1" stop-color="#5E36FF"/></linearGradient><linearGradient id="paint2_linear_23_33" x1="72.708" y1="93" x2="137.024" y2="93" gradientUnits="userSpaceOnUse"><stop offset="0" stop-color="#DFAFFF"/><stop offset="1" stop-color="#4A93FF"/></linearGradient></defs></svg>