<svg width="185" height="185" fill="none" xmlns="http://www.w3.org/2000/svg"><circle cx="92.5" cy="92.5" r="91" stroke="url(#paint0_linear_23_90)" stroke-width="3"/><path d="M131.124 89.698l-4.555-.836-20.601-44.835H79.764a7.767 7.767 0 00-1.148 0h-.014a6.773 6.773 0 00-5.349 3.4l-.403.701a6.856 6.856 0 00.014 6.886l20.175 34.55a6.856 6.856 0 01.014 6.886l-4.64 8.033-8.564-17.144 1.48-1.48H55.33a8.231 8.231 0 00-.588 0h-.184v.007a7.38 7.38 0 00-1.112.156 6.763 6.763 0 00-4.357 3.244l-.17.305a6.854 6.854 0 000 6.857l24.334 42.144c1.644 2.848 4.825 3.917 7.623 3.223h26.183l-1.119-2.238 25.184-49.859z" fill="url(#paint1_linear_23_90)"/><path d="M100.173 47.427l-.404.701a6.856 6.856 0 00.014 6.886l20.176 34.55a6.855 6.855 0 01.014 6.885l-11.625 20.141c-.999 1.728-3.492 1.735-4.498.014L87.875 89.238c-2.656-4.548-9.23-4.527-11.859.028l-.177.305a6.855 6.855 0 000 6.857l24.334 42.144c2.643 4.569 9.238 4.569 11.88 0l24.334-42.144a6.853 6.853 0 000-6.857l-24.334-42.144c-2.642-4.57-9.237-4.57-11.88 0z" fill="url(#paint2_linear_23_90)"/><defs><linearGradient id="paint0_linear_23_90" x1="0" y1="185" x2="185" y2="185" gradientUnits="userSpaceOnUse"><stop stop-color="#DFAFFF"/><stop offset="1" stop-color="#4A93FF"/></linearGradient><linearGradient id="paint1_linear_23_90" x1="48" y1="142" x2="131.124" y2="142" gradientUnits="userSpaceOnUse"><stop stop-color="#BF5EFF"/><stop offset="1" stop-color="#5E36FF"/></linearGradient><linearGradient id="paint2_linear_23_90" x1="74.92" y1="141.999" x2="137.307" y2="141.999" gradientUnits="userSpaceOnUse"><stop stop-color="#DFAFFF"/><stop offset="1" stop-color="#4A93FF"/></linearGradient></defs></svg>