<svg width="102" height="102" fill="none" xmlns="http://www.w3.org/2000/svg"><path d="M7.219 101.763s40.171-34.62 50.041-44.49c9.87-9.87 44.49-50.041 44.49-50.041.314-5.114-1.459-6.888-6.573-6.573 0 0-40.172 34.62-50.042 44.49C35.266 55.019.645 95.19.645 95.19c-.318 5.114 1.456 6.887 6.574 6.573z" fill="url(#paint0_radial_25_3891)"/><path d="M7.219 101.763s40.171-34.62 50.041-44.49c9.87-9.87 44.49-50.041 44.49-50.041.314-5.114-1.459-6.888-6.573-6.573 0 0-40.172 34.62-50.042 44.49C35.266 55.019.645 95.19.645 95.19c-.318 5.114 1.456 6.887 6.574 6.573zM47 47.013C55.912 38.104 91.224 7.44 96.178 3.26h.072c1.224 0 2.075.187 2.397.53.163.174.505.743.498 2.437-4.176 4.955-34.84 40.267-43.755 49.178C46.48 64.32 11.167 94.98 6.213 99.16H6.14c-1.225 0-2.076-.187-2.398-.53-.163-.174-.505-.743-.497-2.437C7.425 91.238 38.088 55.926 47 47.015z" fill="url(#paint1_radial_25_3891)"/><defs><radialGradient id="paint0_radial_25_3891" cx="0" cy="0" r="1" gradientUnits="userSpaceOnUse" gradientTransform="rotate(134.664 14.904 36.297) scale(71.4094 9.55133)"><stop stop-color="#BF5EFF"/><stop offset="1" stop-color="#161037" stop-opacity="0"/></radialGradient><radialGradient id="paint1_radial_25_3891" cx="0" cy="0" r="1" gradientUnits="userSpaceOnUse" gradientTransform="matrix(-47.69756 49.28888 -6.70568 -6.48918 51.197 51.211)"><stop stop-color="#5E36FF"/><stop offset="1" stop-color="#BF5EFF" stop-opacity=".3"/></radialGradient></defs></svg>