<svg width="228" height="52" fill="none" xmlns="http://www.w3.org/2000/svg"><path d="M67.423 22.143a30.14 30.14 0 01-1.195-.064c-.195 0-.594-.068-1.195-.2-.451-.112-.797-.225-1.034-.337a3.702 3.702 0 01-.992-.677c-.869-.774-1.301-2.139-1.301-4.09l.083-7.461c0-.5.139-.914.413-1.237.38-.436.842-.654 1.383-.654h2.102v9.848c0 .113.03.237.086.369.192.387.478.582.865.582h9.784c.282 0 .526-.124.73-.368.146-.146.221-.383.221-.707V7.43c0-.003.008-.003.023-.003h2.094c.24 0 .473.052.699.158.436.184.755.5.95.95.065.17.106.343.129.52.063 4.62.094 7.224.094 7.81 0 1.064-.15 1.989-.455 2.77a4.171 4.171 0 01-.35.677 3.664 3.664 0 01-.868.887 5.32 5.32 0 01-.887.455c-.305.128-.756.245-1.365.35-.699.098-1.274.146-1.733.146h-8.28v-.007zm18.272-14.72h10.8c1.902 0 3.496.413 4.778 1.237.218.127.458.308.718.537 1.048.993 1.575 2.237 1.575 3.73 0 1.255-.38 2.33-1.143 3.224a3.726 3.726 0 01-.496.478c-.316.266-.591.462-.824.582-1.274.74-2.811 1.11-4.608 1.11l-8.138.04h-.222v2.399c0 .45-.2.83-.601 1.142a1.478 1.478 0 01-.824.245h-2.379V8.787c0-.387.173-.74.519-1.056.26-.207.541-.308.846-.308zm2.44 3.815v3.33h8.634c.824 0 1.417-.172 1.775-.518a5.98 5.98 0 00.199-.21 1.57 1.57 0 00.297-.929c0-.718-.354-1.218-1.056-1.5-.316-.113-.715-.169-1.196-.169h-8.653v-.004zm18.738-3.815h14.435c.372 0 .714.158 1.026.474.226.274.338.586.338.928v2.41h-13.366v1.597h9.352c0 .008 0 .011.004.015.003.004.007.004.015.004v3.793l-.012.01v.012h-9.363l-.023 5.473h-2.409c-.429 0-.797-.18-1.098-.537-.203-.267-.308-.542-.308-.823V8.765c0-.233.079-.474.244-.73.305-.409.692-.612 1.165-.612zm19.212 0h10.717c1.444 0 2.692.226 3.74.677.211.086.376.154.496.21.177.098.365.214.561.35a4.715 4.715 0 011.996 2.42c.21.557.315 1.15.315 1.775v.139c0 .755-.158 1.466-.473 2.135a8.31 8.31 0 01-.369.635c-.128.17-.278.35-.455.538a2.825 2.825 0 01-.251.263l-.106.105-.082.064-.158.128c-.128.09-.286.199-.474.315a.531.531 0 00-.086.053c-.192.098-.361.188-.519.263-.079.034-.15.072-.222.105-.274.113-.564.215-.868.309.872.902 1.473 1.556 1.797 1.966.218.248.432.488.646.729.402.466.786.898 1.15 1.3.113.106.181.18.2.222h-4.567c-.26 0-.467-.026-.613-.082-.042-.023-.083-.042-.117-.064-.034-.023-.075-.046-.116-.076-.147-.097-.312-.263-.496-.496a120.385 120.385 0 01-2.124-2.608l-.369-.474a.692.692 0 00-.127.022c-.436 0-1.752.008-3.944.023h-2.683v2.398c0 .451-.196.831-.583 1.143-.233.162-.5.244-.804.244h-2.421V8.904c0-.24.03-.429.086-.571.027-.083.079-.185.147-.297a1.01 1.01 0 01.18-.2c.301-.274.632-.413.996-.413zm2.399 3.815v3.33h8.656c.677 0 1.192-.116 1.542-.349.251-.162.439-.376.56-.646.097-.203.146-.436.146-.7 0-.514-.237-.943-.706-1.289a1.66 1.66 0 00-.222-.128c-.023-.007-.042-.018-.064-.03a2.31 2.31 0 00-.583-.169 3.66 3.66 0 01-.349-.022h-8.98v.003zM151.3 7.423h7.578c1.275 0 2.466.383 3.571 1.15.185.113.414.297.688.549.042.034.087.075.139.117.346.394.594.699.752.91a6.302 6.302 0 011.109 3.615v2.041c0 1.557-.504 2.944-1.511 4.154-.316.346-.579.594-.782.74a5.736 5.736 0 01-1.09.73 6.177 6.177 0 01-2.894.718h-7.533c-1.361 0-2.613-.421-3.763-1.26a9.743 9.743 0 01-.804-.729c-.346-.372-.583-.676-.707-.91a6.138 6.138 0 01-1.004-3.401v-2.124c0-1.444.463-2.755 1.384-3.932.135-.154.353-.395.654-.718.304-.26.563-.455.781-.582 1.076-.71 2.222-1.068 3.432-1.068zm-2.439 6.394v1.925c0 .522.109.954.327 1.3.041.128.169.308.38.538a2.455 2.455 0 001.819.759h7.409c.823 0 1.492-.335 2.007-1.004.147-.191.263-.383.35-.582.112-.275.169-.628.169-1.057V13.9c0-.459-.049-.801-.147-1.027a2.545 2.545 0 00-1.097-1.289 2.407 2.407 0 00-1.26-.35h-7.45c-.816 0-1.492.346-2.03 1.034a2.45 2.45 0 00-.308.56c-.113.267-.169.594-.169.989zm19.836-6.394h2.379c.079 0 .711.511 1.902 1.534A580.933 580.933 0 01177 12.449c1.489 1.308 2.812 2.473 3.97 3.492l1.733 1.533V7.423h2.379c.5 0 .891.2 1.173.59.169.24.252.511.252.816v11.89c0 .473-.2.868-.602 1.183a1.508 1.508 0 01-.391.18c-.097.042-.278.065-.537.065h-2.229c-.083 0-.726-.511-1.925-1.534a388.027 388.027 0 01-4.037-3.492c-1.492-1.308-2.819-2.47-3.973-3.492l-1.733-1.522v10.04h-2.316c-.345 0-.627-.072-.845-.21a1.468 1.468 0 01-.56-.719 1.308 1.308 0 01-.083-.473V8.866c0-.477.195-.864.583-1.15.233-.2.515-.293.838-.293zm21.644 0h16.37c.41 0 .748.124 1.015.368.147.143.244.256.286.35.127.248.191.455.191.624v2.496h-7.893v10.886h-2.451c-.346 0-.669-.14-.974-.414a.206.206 0 01-.022-.03 1.21 1.21 0 01-.083-.094c-.203-.267-.308-.541-.308-.823v-9.525h-7.62V9.317c0-.5.015-.751.042-.759.064-.282.173-.507.327-.676.169-.147.293-.241.368-.275.177-.124.429-.184.752-.184zM63.458 29.638h10.799c1.902 0 3.496.414 4.778 1.237.218.128.458.308.718.538 1.048.992 1.575 2.236 1.575 3.728 0 1.256-.38 2.327-1.143 3.226a3.4 3.4 0 01-.496.473c-.316.267-.59.463-.823.583-1.275.74-2.812 1.109-4.609 1.109l-8.138.041h-.222v2.398c0 .451-.2.831-.601 1.143a1.479 1.479 0 01-.824.244h-2.379V31c0-.387.173-.74.519-1.056a1.36 1.36 0 01.846-.305zM65.9 33.45v3.33h8.634c.823 0 1.417-.173 1.774-.518.064-.064.132-.136.2-.21a1.57 1.57 0 00.297-.93c0-.717-.354-1.217-1.057-1.5-.315-.112-.714-.168-1.195-.168H65.9v-.004zm18.77-3.812h10.716c1.444 0 2.692.226 3.74.677.21.083.376.154.496.21.177.098.365.215.561.35a4.7 4.7 0 011.996 2.42c.21.557.315 1.147.315 1.775v.14a4.96 4.96 0 01-.473 2.134 8.31 8.31 0 01-.369.636 6.567 6.567 0 01-.455.537 2.838 2.838 0 01-.251.263l-.106.105-.082.064-.158.128c-.128.09-.286.2-.474.316a.537.537 0 00-.086.052c-.192.098-.361.188-.519.264-.079.033-.15.071-.222.105-.274.113-.564.214-.868.308.872.902 1.473 1.556 1.797 1.966.218.248.432.489.646.73.402.465.786.898 1.15 1.3.113.105.181.18.2.222h-4.568c-.259 0-.466-.027-.612-.083-.041-.023-.083-.041-.117-.064s-.075-.045-.116-.075c-.147-.098-.312-.263-.496-.496a120.09 120.09 0 01-2.124-2.61l-.369-.477a.697.697 0 00-.127.023c-.436 0-1.752.008-3.944.023h-2.683v2.398c0 .45-.196.83-.583 1.143a1.38 1.38 0 01-.805.244h-2.42v-13.25c0-.241.03-.429.086-.572a1.53 1.53 0 01.147-.297.994.994 0 01.18-.199c.297-.274.632-.41.996-.41zm2.398 3.812v3.33h8.656c.677 0 1.192-.116 1.542-.35.251-.16.44-.375.56-.642.097-.203.146-.436.146-.7 0-.514-.236-.943-.706-1.288a1.61 1.61 0 00-.222-.128c-.023-.008-.041-.02-.064-.03a2.303 2.303 0 00-.583-.17c-.086 0-.199-.007-.35-.022h-8.98zm22.816-3.812h7.578c1.275 0 2.466.384 3.571 1.154.185.113.414.297.688.55.042.033.087.074.139.116.346.394.594.699.752.91a6.302 6.302 0 011.109 3.615v2.042c0 1.556-.504 2.943-1.511 4.153-.316.346-.579.59-.782.74a5.731 5.731 0 01-1.09.73 6.132 6.132 0 01-2.894.718h-7.537c-1.361 0-2.613-.421-3.763-1.26a10.09 10.09 0 01-.804-.729c-.346-.372-.583-.676-.707-.91a6.138 6.138 0 01-1.003-3.401v-2.131c0-1.444.462-2.756 1.383-3.932.135-.154.353-.395.654-.718a5.79 5.79 0 01.782-.583c1.079-.71 2.225-1.064 3.435-1.064zm-2.439 6.394v1.925c0 .522.109.955.327 1.3.041.128.169.309.38.538.499.508 1.105.76 1.819.76h7.409c.823 0 1.492-.335 2.007-1.004.147-.192.263-.384.35-.583.112-.274.169-.628.169-1.056v-1.797c0-.459-.049-.8-.147-1.026a2.545 2.545 0 00-1.097-1.29 2.407 2.407 0 00-1.26-.35h-7.454c-.815 0-1.492.347-2.03 1.038a2.49 2.49 0 00-.308.56c-.109.26-.165.59-.165.985zm18.907-6.394h16.37c.41 0 .748.124 1.015.369.147.143.245.255.286.35.128.247.192.454.192.623v2.492h-7.894v10.886h-2.451c-.346 0-.669-.139-.973-.413-.008-.008-.015-.019-.023-.03a1.224 1.224 0 01-.083-.094c-.203-.267-.308-.541-.308-.823v-9.526h-7.619V31.53c0-.5.015-.755.041-.76.064-.281.173-.507.327-.676.169-.146.293-.24.368-.274.177-.12.425-.18.752-.18zm25.268 0h7.578c1.274 0 2.466.384 3.571 1.154.184.113.413.297.688.55.041.033.086.074.139.116.346.394.594.699.752.91a6.31 6.31 0 011.109 3.615v2.042c0 1.556-.504 2.943-1.512 4.153-.315.346-.578.59-.781.74a5.874 5.874 0 01-1.087.73 6.148 6.148 0 01-2.898.718h-7.533c-1.361 0-2.612-.421-3.762-1.26a9.892 9.892 0 01-.805-.729c-.346-.372-.583-.676-.707-.91a6.138 6.138 0 01-1.003-3.401v-2.131c0-1.444.462-2.756 1.383-3.932.135-.154.353-.395.654-.718.305-.26.564-.455.782-.583 1.075-.71 2.218-1.064 3.432-1.064zm-2.443 6.394v1.925c0 .522.109.955.327 1.3.041.128.169.309.379.538.5.508 1.105.76 1.82.76h7.408c.824 0 1.493-.335 2.008-1.004.146-.192.263-.384.349-.583.113-.274.169-.628.169-1.056v-1.797c0-.459-.048-.8-.146-1.026a2.542 2.542 0 00-1.098-1.29 2.4 2.4 0 00-1.259-.35h-7.45c-.82 0-1.492.347-2.03 1.038-.147.21-.252.399-.308.56-.113.26-.169.59-.169.985zm24.433-6.394h11.318c.522 0 .932.226 1.237.677.135.233.199.477.199.73v2.409H173.67c-.816 0-1.489.33-2.007.992a2.368 2.368 0 00-.497 1.47v2.165c0 .646.23 1.218.688 1.71.218.203.395.342.53.414.128.082.267.146.421.192.297.105.523.157.677.157h12.852v2.44c0 .387-.173.74-.519 1.056a1.439 1.439 0 01-.887.308h-11.341c-1.297 0-2.507-.398-3.635-1.195a8.631 8.631 0 01-.804-.688c-.361-.387-.602-.692-.729-.91a5.976 5.976 0 01-.474-.845c-.395-.816-.594-1.733-.594-2.748v-1.943c0-1.106.241-2.102.718-2.993a8.78 8.78 0 01.519-.868l.18-.21c.105-.128.226-.263.361-.414.372-.364.677-.62.91-.76a6.47 6.47 0 011.173-.676 6.6 6.6 0 012.398-.47zm20.452 0h7.578c1.274 0 2.466.384 3.571 1.154.184.113.414.297.688.55.041.033.087.074.139.116.346.394.594.699.752.91a6.31 6.31 0 011.109 3.615v2.042c0 1.556-.504 2.943-1.511 4.153-.316.346-.579.59-.782.74a5.731 5.731 0 01-1.09.73 6.136 6.136 0 01-2.895.718h-7.533c-1.36 0-2.612-.421-3.762-1.26a9.892 9.892 0 01-.805-.729c-.345-.372-.582-.676-.706-.91a6.139 6.139 0 01-1.004-3.401v-2.131c0-1.444.462-2.756 1.383-3.932.136-.154.354-.395.654-.718.305-.26.564-.455.782-.583 1.075-.71 2.218-1.064 3.432-1.064zm-2.443 6.394v1.925c0 .522.109.955.327 1.3.041.128.169.309.38.538.499.508 1.105.76 1.819.76h7.409c.823 0 1.492-.335 2.007-1.004.147-.192.263-.384.35-.583.112-.274.169-.628.169-1.056v-1.797c0-.459-.049-.8-.147-1.026a2.545 2.545 0 00-1.097-1.29 2.407 2.407 0 00-1.26-.35h-7.45c-.816 0-1.492.347-2.03 1.038a2.45 2.45 0 00-.308.56c-.113.26-.169.59-.169.985zm19.795-6.394h2.439a.435.435 0 01-.011.106.085.085 0 00-.011.03v10.168l.022.022h-.022c.015.015.022.026.022.038v.556h13.529v2.334c0 .647-.297 1.11-.888 1.384a1.423 1.423 0 01-.473.082h-14.585c-.477 0-.868-.206-1.173-.624a1.205 1.205 0 01-.21-.59v-.105l-.023-12.036c0-.346.139-.662.414-.951.278-.278.605-.414.97-.414z" fill="#fff"/><path d="M44.106 24.248l-2.416-.443L30.759.015H16.854a4.117 4.117 0 00-.609 0h-.007A3.594 3.594 0 0013.4 1.817l-.215.373a3.638 3.638 0 00.008 3.653l10.705 18.333a3.638 3.638 0 01.008 3.653l-2.462 4.263-4.545-9.097.786-.785H3.89a4.27 4.27 0 00-.312 0H3.48v.004c-.2.015-.395.037-.59.082a3.592 3.592 0 00-2.312 1.722l-.09.162a3.637 3.637 0 000 3.638L13.4 50.181c.872 1.511 2.56 2.079 4.044 1.71h13.893l-.593-1.187 13.362-26.456z" fill="url(#paint0_linear_23_70)"/><path d="M27.293 1.818l-.215.373a3.638 3.638 0 00.008 3.653l10.706 18.333a3.638 3.638 0 01.007 3.653l-6.168 10.687a1.38 1.38 0 01-2.387.008l-8.477-14.521c-1.41-2.414-4.898-2.402-6.292.015l-.094.161a3.637 3.637 0 000 3.639l12.912 22.362c1.402 2.425 4.901 2.425 6.303 0l12.912-22.362a3.637 3.637 0 000-3.639L33.596 1.818c-1.402-2.424-4.901-2.424-6.303 0z" fill="url(#paint1_linear_23_70)"/><defs><linearGradient id="paint0_linear_23_70" x1="8.708" y1="14.089" x2="40.489" y2="40.613" gradientUnits="userSpaceOnUse"><stop stop-color="#733DAD"/><stop offset="1" stop-color="#1A16B7"/></linearGradient><linearGradient id="paint1_linear_23_70" x1="26.079" y1="34.382" x2="41.972" y2="3.869" gradientUnits="userSpaceOnUse"><stop stop-color="#BF5EFF"/><stop offset="1" stop-color="#5E36FF"/></linearGradient></defs></svg>