<svg width="222" height="175" fill="none" xmlns="http://www.w3.org/2000/svg"><path d="M202.415 31.452l-45.422-20.727c-3.793-1.725-8.101 1.084-8.076 5.274l.073 18.73a5.773 5.773 0 003.353 5.226l45.348 20.776c3.794 1.725 8.101-1.06 8.101-5.25v-18.78a5.764 5.764 0 00-3.377-5.25z" fill="url(#paint0_linear_93_85)"/><path d="M49.914 10.63L73.085.448c3.432-1.512 7.29.99 7.29 4.707l-.1 20.339c0 2.007-1.203 3.815-3.056 4.657L54.148 40.383c-3.457 1.511-7.315-.966-7.315-4.682V15.31a5.101 5.101 0 013.081-4.681z" fill="url(#paint1_linear_93_85)"/><path d="M218.752 98.13l-23.171-10.182c-3.432-1.511-7.289.99-7.289 4.707l.1 20.339c0 2.007 1.202 3.815 3.056 4.658l23.071 10.231c3.457 1.511 7.314-.966 7.314-4.682v-20.389a5.101 5.101 0 00-3.081-4.682z" fill="url(#paint2_linear_93_85)"/><path d="M3.544 88.327L48.965 67.6c3.794-1.725 8.101 1.084 8.076 5.274l-.073 18.73a5.772 5.772 0 01-3.353 5.226L8.267 117.606c-3.793 1.725-8.1-1.06-8.1-5.25v-18.78a5.763 5.763 0 013.377-5.25z" fill="url(#paint3_linear_93_85)"/><path d="M171.149 95.253l-46.027 26.583h-.021L79.075 95.253 125.1 68.671l46.048 26.582z" fill="url(#paint4_linear_93_85)" fill-opacity=".3"/><path d="M171.149 95.253v53.144L125.101 175v-53.165h.021l46.027-26.582z" fill="url(#paint5_linear_93_85)"/><path d="M125.101 121.835V175l-46.026-26.603V95.253l46.026 26.582z" fill="url(#paint6_linear_93_85)"/><path d="M171.046 26.398l-45.924 26.746h-.021L78.972 26.746 124.917 0l46.129 26.398z" fill="url(#paint7_linear_93_85)"/><path d="M171.046 26.398l.205 53.164-45.945 26.767-.205-53.185h.021l45.924-26.746z" fill="url(#paint8_linear_93_85)"/><path d="M125.101 53.144l.205 53.185-46.129-26.438-.205-53.145 46.129 26.398z" fill="url(#paint9_linear_93_85)"/><path d="M125.163 53.206l.082 26.602-23.054-13.23-.103-26.56 23.075 13.188z" fill="#B086CC"/><path d="M125.122 53.144l-.103 26.582 23.055-13.209.102-26.787-23.054 13.414z" fill="#9F79B8"/><path d="M148.217 66.415l-22.972 13.373-23.075-13.21 22.972-13.373 23.075 13.21z" fill="#E0CCEC"/><path d="M125.245 53.308L102.17 40.1l22.972-13.373" fill="#B086CC"/><path d="M125.142 26.726l23.075 13.21-22.972 13.372" fill="#9F79B8"/><path d="M91.422 131.537L68.45 144.91h-.02l-23.055-13.209 22.972-13.373 23.075 13.209z" fill="url(#paint10_linear_93_85)"/><path d="M91.422 131.537l.082 26.562-22.972 13.393-.103-26.582h.02l22.973-13.373z" fill="url(#paint11_linear_93_85)"/><path d="M68.43 144.91l.102 26.583-23.054-13.209-.103-26.583 23.054 13.209z" fill="url(#paint12_linear_93_85)"/><defs><linearGradient id="paint1_linear_93_85" x1="63.596" y1="-14.397" x2="63.596" y2="72.04" gradientUnits="userSpaceOnUse"><stop stop-color="#504BF9" stop-opacity="0"/><stop offset=".998" stop-color="#9400D5"/></linearGradient><linearGradient id="paint6_linear_93_85" x1="79.075" y1="175" x2="125.101" y2="175" gradientUnits="userSpaceOnUse"><stop stop-color="#A142EA"/><stop offset="1" stop-color="#3415E8"/></linearGradient><linearGradient id="paint2_linear_93_85" x1="205.071" y1="73.103" x2="205.071" y2="159.54" gradientUnits="userSpaceOnUse"><stop stop-color="#504BF9" stop-opacity="0"/><stop offset=".998" stop-color="#9400D5"/></linearGradient><linearGradient id="paint3_linear_93_85" x1="28.616" y1="60.884" x2="28.616" y2="195.054" gradientUnits="userSpaceOnUse"><stop stop-color="#504BF9" stop-opacity="0"/><stop offset="1" stop-color="#773FFF"/></linearGradient><linearGradient id="paint4_linear_93_85" x1="79.075" y1="121.836" x2="171.149" y2="121.836" gradientUnits="userSpaceOnUse"><stop stop-color="#A142EA"/><stop offset="1" stop-color="#3415E8"/></linearGradient><linearGradient id="paint5_linear_93_85" x1="125.101" y1="175" x2="171.149" y2="175" gradientUnits="userSpaceOnUse"><stop stop-color="#8300DA"/><stop offset="1" stop-color="#2500B9"/></linearGradient><linearGradient id="paint0_linear_93_85" x1="177.342" y1="4.009" x2="177.342" y2="138.179" gradientUnits="userSpaceOnUse"><stop stop-color="#504BF9" stop-opacity="0"/><stop offset="1" stop-color="#773FFF"/></linearGradient><linearGradient id="paint7_linear_93_85" x1="78.972" y1="53.144" x2="171.046" y2="53.144" gradientUnits="userSpaceOnUse"><stop stop-color="#DFAFFF"/><stop offset="1" stop-color="#4A93FF"/></linearGradient><linearGradient id="paint8_linear_93_85" x1="125.101" y1="106.329" x2="171.251" y2="106.329" gradientUnits="userSpaceOnUse"><stop stop-color="#A142EA"/><stop offset="1" stop-color="#3415E8"/></linearGradient><linearGradient id="paint9_linear_93_85" x1="78.972" y1="106.329" x2="125.306" y2="106.329" gradientUnits="userSpaceOnUse"><stop stop-color="#BF5EFF"/><stop offset="1" stop-color="#5E36FF"/></linearGradient><linearGradient id="paint10_linear_93_85" x1="45.375" y1="144.91" x2="91.422" y2="144.91" gradientUnits="userSpaceOnUse"><stop stop-color="#BF5EFF"/><stop offset="1" stop-color="#5E36FF"/></linearGradient><linearGradient id="paint11_linear_93_85" x1="68.429" y1="171.492" x2="91.504" y2="171.492" gradientUnits="userSpaceOnUse"><stop stop-color="#161037"/><stop offset="1" stop-color="#3415E8"/></linearGradient><linearGradient id="paint12_linear_93_85" x1="45.375" y1="171.493" x2="68.532" y2="171.493" gradientUnits="userSpaceOnUse"><stop stop-color="#8300DA"/><stop offset="1" stop-color="#2500B9"/></linearGradient></defs></svg>