<svg width="185" height="185" fill="none" xmlns="http://www.w3.org/2000/svg"><circle cx="92.5" cy="92.5" r="91" stroke="url(#paint0_linear_23_132)" stroke-width="3"/><path d="M103.776 106.546l25.926-25.117-35.829-5.168-1.63-3.289L106.632 44h-28.78L61.829 76.26 26 81.43l25.925 25.116L45.807 142h28.78l32.044-16.742L138.675 142h.051l-34.95-35.454z" fill="url(#paint1_linear_23_132)"/><path d="M54.78 81.436L26 81.429l25.925 25.117h28.78L54.78 81.436z" fill="url(#paint2_linear_23_132)"/><path d="M106.631 44l16.022 32.26 35.828 5.176-25.925 25.11L138.675 142l-32.044-16.742L74.586 142l6.12-35.454-25.926-25.11 35.828-5.175L106.631 44z" fill="url(#paint3_linear_23_132)"/><path d="M61.829 76.26h28.78L106.63 44H77.85L61.829 76.26z" fill="url(#paint4_linear_23_132)"/><defs><linearGradient id="paint0_linear_23_132" x1="0" y1="185" x2="185" y2="185" gradientUnits="userSpaceOnUse"><stop stop-color="#DFAFFF"/><stop offset="1" stop-color="#4A93FF"/></linearGradient><linearGradient id="paint1_linear_23_132" x1="52.496" y1="60.416" x2="105.353" y2="133.951" gradientUnits="userSpaceOnUse"><stop offset="0" stop-color="#BF5EFF"/><stop offset="1" stop-color="#5E36FF"/></linearGradient><linearGradient id="paint2_linear_23_132" x1="37.562" y1="72.299" x2="61.587" y2="105.723" gradientUnits="userSpaceOnUse"><stop offset="0" stop-color="#BF5EFF"/><stop offset="1" stop-color="#5E36FF"/></linearGradient><linearGradient id="paint3_linear_23_132" x1="67.992" y1="93" x2="152.822" y2="93" gradientUnits="userSpaceOnUse"><stop offset="0" stop-color="#DFAFFF"/><stop offset="1" stop-color="#4A93FF"/></linearGradient><linearGradient id="paint4_linear_23_132" x1="74.077" y1="46.184" x2="89.525" y2="67.675" gradientUnits="userSpaceOnUse"><stop offset="0" stop-color="#BF5EFF"/><stop offset="1" stop-color="#5E36FF"/></linearGradient></defs></svg>