<svg width="231" height="395" fill="none" xmlns="http://www.w3.org/2000/svg"><path d="M15.162 294.463l105.215 58.784c1.61.901 3.541.901 5.118 0l103.864-58.752c1.351-.74 1.319-2.671 0-3.444l-105.731-59.073a4.2 4.2 0 00-4.088 0L15.162 291.051c-1.32.74-1.32 2.672 0 3.412z" stroke="#fff" stroke-width=".25" stroke-miterlimit="10" stroke-linecap="round" stroke-linejoin="round" stroke-dasharray="2 2"/><path d="M1 394.614l63.953-38.052-25.427-11.589 50.918-32.546" stroke="#19D8F8" stroke-width=".284" stroke-miterlimit="10"/><path d="M53.495 282.198l69.682 38.985a3.522 3.522 0 003.477 0l68.684-38.856.74-1.256v15.774a2.18 2.18 0 01-1.126 1.932l-67.816 38.373c-1.384.773-3.09.805-4.474 0l-68.78-38.534a1.99 1.99 0 01-1.03-1.738v-15.839l.643 1.159z" fill="url(#paint0_linear_26_6655)"/><path d="M53.527 282.23l69.715 38.953a3.566 3.566 0 003.411 0l68.814-38.921c.901-.515.869-1.77 0-2.285l-70.069-39.146c-.837-.483-1.867-.451-2.703 0l-69.168 39.114c-.869.515-.869 1.802 0 2.285z" fill="#7795FC"/><path d="M53.495 250.553l69.682 38.985a3.522 3.522 0 003.477 0l68.684-38.856.74-1.256V265.2a2.18 2.18 0 01-1.126 1.932l-67.784 38.341c-1.384.773-3.089.805-4.473 0l-68.814-38.47a1.99 1.99 0 01-1.03-1.738v-15.807l.644 1.095z" fill="url(#paint1_linear_26_6655)"/><path d="M53.527 250.617l69.715 38.953a3.56 3.56 0 003.411 0l68.814-38.92c.901-.515.869-1.771 0-2.286l-70.069-39.146c-.837-.483-1.867-.451-2.703 0l-69.168 39.114c-.869.515-.869 1.803 0 2.285z" fill="#7795FC"/><path d="M53.527 233.62l69.715 38.953a3.566 3.566 0 003.411 0l68.814-38.921c.901-.515.869-1.77 0-2.286l-70.069-39.145c-.837-.483-1.867-.451-2.703 0l-69.168 39.145c-.869.483-.869 1.771 0 2.254z" stroke="#3DF0E0" stroke-width=".554" stroke-miterlimit="10"/><path d="M53.495 201.975l69.682 38.985a3.527 3.527 0 003.477 0l68.684-38.857.74-1.255v15.774c0 .805-.418 1.545-1.126 1.932l-67.784 38.309c-1.384.772-3.089.804-4.473 0l-68.814-38.47a1.99 1.99 0 01-1.03-1.739v-15.806l.644 1.127z" fill="#0080FF"/><path d="M53.527 202.007l69.715 38.953a3.566 3.566 0 003.411 0l68.814-38.921c.901-.515.869-1.771 0-2.286l-70.069-39.145c-.837-.483-1.867-.451-2.703 0l-69.168 39.145c-.869.483-.869 1.771 0 2.254z" fill="#5CAEFC"/><path d="M67.753 201.331l1.063.612 54.78 30.614c.869.483 1.899.483 2.736 0l54.072-30.614 1.062-.612c.708-.386.708-1.417-.032-1.835l-56.132-31.355c-.644-.387-1.481-.355-2.157 0l-55.392 31.355a1.058 1.058 0 000 1.835z" fill="#3DF0E0"/><path d="M68.816 201.943l54.78 30.615c.869.482 1.899.482 2.736 0l54.072-30.615-55.102-30.776c-.644-.354-1.481-.354-2.157 0l-54.33 30.776z" fill="url(#paint2_linear_26_6655)"/><path opacity=".25" d="M52.851 0v200.88c0 .451.226.902.676 1.159l69.715 38.953a3.422 3.422 0 003.379-.032l68.814-38.921c.45-.257.676-.708.676-1.159V0H52.851z" fill="url(#paint3_linear_26_6655)"/><path d="M149.14 154.093H102v45.043h47.14v-45.043z" fill="url(#paint4_linear_26_6655)"/><path d="M144.862 139.806v14.315h-5.676v-14.315c0-3.663-2.74-6.655-6.123-6.655h-14.986c-3.411 0-6.123 2.992-6.123 6.655v14.315h-5.676v-14.315c0-7.046 5.284-12.806 11.799-12.806h14.986c6.487 0 11.799 5.76 11.799 12.806z" fill="#D1B4E3"/><path d="M125.794 177.607a7.522 7.522 0 10-.002-15.044 7.522 7.522 0 00.002 15.044z" fill="#fff"/><path d="M122.047 176.628l-3.774 15.854h15.042l-3.775-15.854h-7.493z" fill="#fff"/><g opacity=".74"><path d="M176.155 192.317c0 .547.451 1.03 1.03 1.03.547 0 1.03-.451 1.03-1.03s-.45-1.03-1.03-1.03c-.579 0-1.03.451-1.03 1.03z" fill="url(#paint5_radial_26_6655)"/><path d="M166.274 174.064c0 .579.451 1.03 1.03 1.03.547 0 1.03-.451 1.03-1.03 0-.547-.45-1.03-1.03-1.03-.579 0-1.03.45-1.03 1.03z" fill="url(#paint6_radial_26_6655)"/><path d="M128.134 180.792c0 .58.451 1.03 1.03 1.03s1.03-.45 1.03-1.03c0-.547-.451-1.03-1.03-1.03s-1.03.451-1.03 1.03z" fill="url(#paint7_radial_26_6655)"/><path d="M83.3 143.578c0 .579.45 1.03 1.03 1.03.546 0 1.03-.451 1.03-1.03 0-.58-.451-1.03-1.03-1.03-.58.032-1.03.482-1.03 1.03z" fill="url(#paint8_radial_26_6655)"/><path d="M128.134 159.835c0 .547.451 1.03 1.03 1.03s1.03-.451 1.03-1.03c0-.58-.451-1.03-1.03-1.03-.579.032-1.03.483-1.03 1.03z" fill="url(#paint9_radial_26_6655)"/><path d="M174.128 128.061c0 .547.45 1.03 1.03 1.03.579 0 1.03-.45 1.03-1.03 0-.579-.451-1.03-1.03-1.03-.58 0-1.03.451-1.03 1.03z" fill="url(#paint10_radial_26_6655)"/><path d="M100.583 204.647c0 .579.451 1.03 1.03 1.03s1.03-.451 1.03-1.03c0-.548-.451-1.031-1.03-1.031s-1.03.483-1.03 1.031z" fill="url(#paint11_radial_26_6655)"/><path d="M152.241 192.317c0 .547.451 1.03 1.03 1.03.58 0 1.03-.451 1.03-1.03s-.45-1.03-1.03-1.03c-.579 0-1.03.451-1.03 1.03z" fill="url(#paint12_radial_26_6655)"/><path d="M150.181 160.865c0 .58.451 1.03 1.03 1.03.58 0 1.03-.45 1.03-1.03 0-.579-.45-1.03-1.03-1.03-.579 0-1.03.483-1.03 1.03z" fill="url(#paint13_radial_26_6655)"/><path d="M154.816 175.706c0 .257.225.483.483.483a.496.496 0 00.483-.483.495.495 0 00-.483-.483.474.474 0 00-.483.483z" fill="url(#paint14_radial_26_6655)"/><path d="M186.551 157.968a.483.483 0 100-.965.483.483 0 000 .965z" fill="url(#paint15_radial_26_6655)"/><path d="M178.183 150.274a.483.483 0 100-.965.483.483 0 000 .965z" fill="url(#paint16_radial_26_6655)"/><path d="M162.348 157.968a.482.482 0 100-.965.482.482 0 000 .965z" fill="url(#paint17_radial_26_6655)"/><path d="M133.155 140.487c0 .258.225.483.483.483a.495.495 0 00.483-.483.496.496 0 00-.483-.483.474.474 0 00-.483.483z" fill="url(#paint18_radial_26_6655)"/><path d="M180.275 171.714a.483.483 0 100-.965.483.483 0 000 .965z" fill="url(#paint19_radial_26_6655)"/><path d="M142.489 179.762c0 .257.225.483.483.483a.495.495 0 00.482-.483.494.494 0 00-.482-.483.474.474 0 00-.483.483z" fill="url(#paint20_radial_26_6655)"/><path d="M165.791 212.244a.483.483 0 100-.965.483.483 0 000 .965z" fill="url(#paint21_radial_26_6655)"/><path d="M154.816 221.708c0 .258.225.483.483.483a.495.495 0 00.483-.483.495.495 0 00-.483-.482.474.474 0 00-.483.482z" fill="url(#paint22_radial_26_6655)"/><path d="M136.277 221.226a.483.483 0 100-.965.483.483 0 000 .965z" fill="url(#paint23_radial_26_6655)"/><path d="M125.076 225.185c0 .258.226.483.483.483a.495.495 0 00.483-.483.495.495 0 00-.483-.483.475.475 0 00-.483.483z" fill="url(#paint24_radial_26_6655)"/><path d="M118.736 218.135c0 .258.225.483.483.483a.494.494 0 00.482-.483.495.495 0 00-.482-.483.495.495 0 00-.483.483z" fill="url(#paint25_radial_26_6655)"/><path d="M108.694 221.709a.483.483 0 100-.967.483.483 0 000 .967z" fill="url(#paint26_radial_26_6655)"/><path d="M115.839 200.655a.483.483 0 100-.965.483.483 0 000 .965z" fill="url(#paint27_radial_26_6655)"/><path d="M103.544 194.828a.483.483 0 100-.965.483.483 0 000 .965z" fill="url(#paint28_radial_26_6655)"/><path d="M97.912 175.094c0 .258.225.483.482.483a.495.495 0 00.483-.483.496.496 0 00-.483-.483c-.29 0-.482.193-.482.483z" fill="url(#paint29_radial_26_6655)"/><path d="M81.722 177.702a.483.483 0 10-.001-.967.483.483 0 00.001.967z" fill="url(#paint30_radial_26_6655)"/><path d="M67.625 180.728a.483.483 0 100-.966.483.483 0 000 .966z" fill="url(#paint31_radial_26_6655)"/><path d="M137.307 188.904a.482.482 0 10.001-.965.482.482 0 00-.001.965z" fill="url(#paint32_radial_26_6655)"/><path d="M148.54 214.658a.483.483 0 100-.966.483.483 0 000 .966z" fill="url(#paint33_radial_26_6655)"/><path d="M127.168 210.795c0 .258.226.483.483.483a.495.495 0 00.483-.483.495.495 0 00-.483-.483.475.475 0 00-.483.483z" fill="url(#paint34_radial_26_6655)"/><path d="M105.765 211.761a.483.483 0 100-.965.483.483 0 000 .965z" fill="url(#paint35_radial_26_6655)"/><path d="M93.695 212.727a.483.483 0 100-.966.483.483 0 000 .966z" fill="url(#paint36_radial_26_6655)"/><path d="M122.759 191.77a.483.483 0 100-.965.483.483 0 000 .965z" fill="url(#paint37_radial_26_6655)"/><path d="M88.964 197.178a.483.483 0 100-.966.483.483 0 000 .966z" fill="url(#paint38_radial_26_6655)"/><path d="M77.377 191.77a.483.483 0 100-.965.483.483 0 000 .965z" fill="url(#paint39_radial_26_6655)"/><path d="M108.05 185.041c0 .258.225.483.483.483a.495.495 0 00.483-.483.495.495 0 00-.483-.482.494.494 0 00-.483.482z" fill="url(#paint40_radial_26_6655)"/><path d="M95.272 162.378c0 .258.226.483.483.483a.495.495 0 00.483-.483.496.496 0 00-.483-.483.474.474 0 00-.483.483z" fill="url(#paint41_radial_26_6655)"/><path d="M159.097 99.217a.483.483 0 100-.967.483.483 0 000 .967z" fill="url(#paint42_radial_26_6655)"/><path d="M130.677 54.888a.483.483 0 10-.001-.965.483.483 0 00.001.965z" fill="url(#paint43_radial_26_6655)"/><path d="M118.736 175.094a.483.483 0 100-.967.483.483 0 000 .967z" fill="url(#paint44_radial_26_6655)"/><path d="M74.834 112.512a.483.483 0 100-.966.483.483 0 000 .966z" fill="url(#paint45_radial_26_6655)"/><path d="M125.559 107.587c0 .257.225.483.483.483a.496.496 0 00.483-.483.495.495 0 00-.483-.483.495.495 0 00-.483.483z" fill="url(#paint46_radial_26_6655)"/><path d="M178.183 66.058a.483.483 0 100-.965.483.483 0 000 .965z" fill="url(#paint47_radial_26_6655)"/><path d="M184.073 115.023a.483.483 0 100-.965.483.483 0 000 .965z" fill="url(#paint48_radial_26_6655)"/><path d="M109.659 138.845a.482.482 0 10.001-.965.482.482 0 00-.001.965z" fill="url(#paint49_radial_26_6655)"/><path d="M95.272 87.95c0 .257.226.482.483.482a.495.495 0 00.483-.483.495.495 0 00-.483-.482.474.474 0 00-.483.482z" fill="url(#paint50_radial_26_6655)"/><path d="M66.66 65.576c0 .257.224.483.482.483a.495.495 0 00.483-.483.495.495 0 00-.483-.483.474.474 0 00-.483.483z" fill="url(#paint51_radial_26_6655)"/><path d="M173.452 207.801a.483.483 0 100-.966.483.483 0 000 .966z" fill="url(#paint52_radial_26_6655)"/><path d="M165.791 197.178a.483.483 0 100-.965.483.483 0 000 .965z" fill="url(#paint53_radial_26_6655)"/><path d="M187.034 185.041a.482.482 0 10.001-.965.482.482 0 00-.001.965z" fill="url(#paint54_radial_26_6655)"/><path d="M93.695 187.424c0 .547.45 1.03 1.03 1.03.58 0 1.03-.451 1.03-1.03 0-.58-.45-1.03-1.03-1.03-.58 0-1.03.45-1.03 1.03z" fill="url(#paint55_radial_26_6655)"/><path d="M105.765 161.895c0 .58.45 1.03 1.03 1.03.579 0 1.03-.45 1.03-1.03 0-.579-.451-1.03-1.03-1.03-.58 0-1.03.451-1.03 1.03z" fill="url(#paint56_radial_26_6655)"/><path d="M59.256 193.315c0 .579.45 1.03 1.03 1.03.58 0 1.03-.451 1.03-1.03 0-.547-.45-1.03-1.03-1.03-.547.032-1.03.483-1.03 1.03z" fill="url(#paint57_radial_26_6655)"/><path d="M135.247 199.174c0 .579.451 1.03 1.03 1.03s1.03-.451 1.03-1.03c0-.58-.451-1.03-1.03-1.03s-1.03.45-1.03 1.03z" fill="url(#paint58_radial_26_6655)"/><path d="M73.804 169.718c0 .547.45 1.03 1.03 1.03.58 0 1.03-.451 1.03-1.03 0-.58-.45-1.03-1.03-1.03-.58.032-1.03.483-1.03 1.03z" fill="url(#paint59_radial_26_6655)"/><path d="M145.997 131.731c0 .58.451 1.03 1.03 1.03s1.03-.45 1.03-1.03c0-.547-.451-1.03-1.03-1.03-.547 0-1.03.451-1.03 1.03z" fill="url(#paint60_radial_26_6655)"/><path d="M60.286 151.304a1.03 1.03 0 100-2.06 1.03 1.03 0 000 2.06z" fill="url(#paint61_radial_26_6655)"/></g><defs><radialGradient id="paint57_radial_26_6655" cx="0" cy="0" r="1" gradientUnits="userSpaceOnUse" gradientTransform="matrix(-1.02029 0 0 -1.0205 60.29 193.325)"><stop stop-color="#fff"/><stop offset="1" stop-color="#19D8F8"/></radialGradient><radialGradient id="paint31_radial_26_6655" cx="0" cy="0" r="1" gradientUnits="userSpaceOnUse" gradientTransform="matrix(-.48407 0 0 -.48417 67.634 180.243)"><stop stop-color="#fff"/><stop offset="1" stop-color="#19D8F8"/></radialGradient><radialGradient id="paint60_radial_26_6655" cx="0" cy="0" r="1" gradientUnits="userSpaceOnUse" gradientTransform="matrix(-1.01997 0 0 -1.02018 147.033 131.715)"><stop stop-color="#fff"/><stop offset="1" stop-color="#19D8F8"/></radialGradient><radialGradient id="paint59_radial_26_6655" cx="0" cy="0" r="1" gradientUnits="userSpaceOnUse" gradientTransform="matrix(-1.01997 0 0 -1.02017 74.82 169.729)"><stop stop-color="#fff"/><stop offset="1" stop-color="#19D8F8"/></radialGradient><radialGradient id="paint58_radial_26_6655" cx="0" cy="0" r="1" gradientUnits="userSpaceOnUse" gradientTransform="matrix(-1.02029 0 0 -1.0205 136.275 199.166)"><stop stop-color="#fff"/><stop offset="1" stop-color="#19D8F8"/></radialGradient><radialGradient id="paint5_radial_26_6655" cx="0" cy="0" r="1" gradientUnits="userSpaceOnUse" gradientTransform="matrix(-1.01997 0 0 -1.02018 177.175 192.305)"><stop stop-color="#fff"/><stop offset="1" stop-color="#19D8F8"/></radialGradient><radialGradient id="paint6_radial_26_6655" cx="0" cy="0" r="1" gradientUnits="userSpaceOnUse" gradientTransform="matrix(-1.0203 0 0 -1.0205 167.291 174.061)"><stop stop-color="#fff"/><stop offset="1" stop-color="#19D8F8"/></radialGradient><radialGradient id="paint7_radial_26_6655" cx="0" cy="0" r="1" gradientUnits="userSpaceOnUse" gradientTransform="matrix(-1.01997 0 0 -1.02017 129.164 180.779)"><stop stop-color="#fff"/><stop offset="1" stop-color="#19D8F8"/></radialGradient><radialGradient id="paint8_radial_26_6655" cx="0" cy="0" r="1" gradientUnits="userSpaceOnUse" gradientTransform="matrix(-1.01997 0 0 -1.02017 84.317 143.593)"><stop stop-color="#fff"/><stop offset="1" stop-color="#19D8F8"/></radialGradient><radialGradient id="paint9_radial_26_6655" cx="0" cy="0" r="1" gradientUnits="userSpaceOnUse" gradientTransform="matrix(-1.01997 0 0 -1.02017 129.164 159.847)"><stop stop-color="#fff"/><stop offset="1" stop-color="#19D8F8"/></radialGradient><radialGradient id="paint10_radial_26_6655" cx="0" cy="0" r="1" gradientUnits="userSpaceOnUse" gradientTransform="matrix(-1.01997 0 0 -1.02017 175.134 128.051)"><stop stop-color="#fff"/><stop offset="1" stop-color="#19D8F8"/></radialGradient><radialGradient id="paint11_radial_26_6655" cx="0" cy="0" r="1" gradientUnits="userSpaceOnUse" gradientTransform="matrix(-1.01997 0 0 -1.02017 101.607 204.65)"><stop stop-color="#fff"/><stop offset="1" stop-color="#19D8F8"/></radialGradient><radialGradient id="paint12_radial_26_6655" cx="0" cy="0" r="1" gradientUnits="userSpaceOnUse" gradientTransform="matrix(-1.02029 0 0 -1.0205 153.249 192.305)"><stop stop-color="#fff"/><stop offset="1" stop-color="#19D8F8"/></radialGradient><radialGradient id="paint13_radial_26_6655" cx="0" cy="0" r="1" gradientUnits="userSpaceOnUse" gradientTransform="matrix(-1.01997 0 0 -1.02017 151.209 160.868)"><stop stop-color="#fff"/><stop offset="1" stop-color="#19D8F8"/></radialGradient><radialGradient id="paint14_radial_26_6655" cx="0" cy="0" r="1" gradientUnits="userSpaceOnUse" gradientTransform="matrix(-.48407 0 0 -.48417 155.29 175.709)"><stop stop-color="#fff"/><stop offset="1" stop-color="#19D8F8"/></radialGradient><radialGradient id="paint15_radial_26_6655" cx="0" cy="0" r="1" gradientUnits="userSpaceOnUse" gradientTransform="matrix(-.48407 0 0 -.48417 186.558 157.483)"><stop stop-color="#fff"/><stop offset="1" stop-color="#19D8F8"/></radialGradient><radialGradient id="paint16_radial_26_6655" cx="0" cy="0" r="1" gradientUnits="userSpaceOnUse" gradientTransform="matrix(-.48407 0 0 -.48417 178.195 149.792)"><stop stop-color="#fff"/><stop offset="1" stop-color="#19D8F8"/></radialGradient><radialGradient id="paint17_radial_26_6655" cx="0" cy="0" r="1" gradientUnits="userSpaceOnUse" gradientTransform="matrix(-.48407 0 0 -.48417 162.348 157.483)"><stop stop-color="#fff"/><stop offset="1" stop-color="#19D8F8"/></radialGradient><radialGradient id="paint18_radial_26_6655" cx="0" cy="0" r="1" gradientUnits="userSpaceOnUse" gradientTransform="matrix(-.48407 0 0 -.48417 133.641 140.472)"><stop stop-color="#fff"/><stop offset="1" stop-color="#19D8F8"/></radialGradient><radialGradient id="paint19_radial_26_6655" cx="0" cy="0" r="1" gradientUnits="userSpaceOnUse" gradientTransform="matrix(-.48407 0 0 -.48417 180.27 171.234)"><stop stop-color="#fff"/><stop offset="1" stop-color="#19D8F8"/></radialGradient><radialGradient id="paint20_radial_26_6655" cx="0" cy="0" r="1" gradientUnits="userSpaceOnUse" gradientTransform="matrix(-.48408 0 0 -.48418 142.965 179.759)"><stop stop-color="#fff"/><stop offset="1" stop-color="#19D8F8"/></radialGradient><radialGradient id="paint21_radial_26_6655" cx="0" cy="0" r="1" gradientUnits="userSpaceOnUse" gradientTransform="matrix(-.48407 0 0 -.48418 165.787 211.751)"><stop stop-color="#fff"/><stop offset="1" stop-color="#19D8F8"/></radialGradient><radialGradient id="paint22_radial_26_6655" cx="0" cy="0" r="1" gradientUnits="userSpaceOnUse" gradientTransform="matrix(-.48407 0 0 -.48417 155.29 221.719)"><stop stop-color="#fff"/><stop offset="1" stop-color="#19D8F8"/></radialGradient><radialGradient id="paint23_radial_26_6655" cx="0" cy="0" r="1" gradientUnits="userSpaceOnUse" gradientTransform="matrix(-.48407 0 0 -.48418 136.275 220.751)"><stop stop-color="#fff"/><stop offset="1" stop-color="#19D8F8"/></radialGradient><radialGradient id="paint24_radial_26_6655" cx="0" cy="0" r="1" gradientUnits="userSpaceOnUse" gradientTransform="matrix(-.48407 0 0 -.48417 125.567 225.177)"><stop stop-color="#fff"/><stop offset="1" stop-color="#19D8F8"/></radialGradient><radialGradient id="paint25_radial_26_6655" cx="0" cy="0" r="1" gradientUnits="userSpaceOnUse" gradientTransform="matrix(-.48407 0 0 -.48418 119.219 218.149)"><stop stop-color="#fff"/><stop offset="1" stop-color="#19D8F8"/></radialGradient><radialGradient id="paint26_radial_26_6655" cx="0" cy="0" r="1" gradientUnits="userSpaceOnUse" gradientTransform="matrix(-.48407 0 0 -.48418 108.682 221.235)"><stop stop-color="#fff"/><stop offset="1" stop-color="#19D8F8"/></radialGradient><radialGradient id="paint27_radial_26_6655" cx="0" cy="0" r="1" gradientUnits="userSpaceOnUse" gradientTransform="matrix(-.48408 0 0 -.48418 115.827 200.187)"><stop stop-color="#fff"/><stop offset="1" stop-color="#19D8F8"/></radialGradient><radialGradient id="paint28_radial_26_6655" cx="0" cy="0" r="1" gradientUnits="userSpaceOnUse" gradientTransform="matrix(-.48408 0 0 -.48417 103.554 194.346)"><stop stop-color="#fff"/><stop offset="1" stop-color="#19D8F8"/></radialGradient><radialGradient id="paint29_radial_26_6655" cx="0" cy="0" r="1" gradientUnits="userSpaceOnUse" gradientTransform="matrix(-.48407 0 0 -.48417 98.382 175.081)"><stop stop-color="#fff"/><stop offset="1" stop-color="#19D8F8"/></radialGradient><radialGradient id="paint30_radial_26_6655" cx="0" cy="0" r="1" gradientUnits="userSpaceOnUse" gradientTransform="matrix(-.48407 0 0 -.48417 81.707 177.213)"><stop stop-color="#fff"/><stop offset="1" stop-color="#19D8F8"/></radialGradient><radialGradient id="paint61_radial_26_6655" cx="0" cy="0" r="1" gradientUnits="userSpaceOnUse" gradientTransform="matrix(-1.02029 0 0 -1.0205 60.29 150.276)"><stop stop-color="#fff"/><stop offset="1" stop-color="#19D8F8"/></radialGradient><radialGradient id="paint32_radial_26_6655" cx="0" cy="0" r="1" gradientUnits="userSpaceOnUse" gradientTransform="matrix(-.48407 0 0 -.48417 137.295 188.433)"><stop stop-color="#fff"/><stop offset="1" stop-color="#19D8F8"/></radialGradient><radialGradient id="paint33_radial_26_6655" cx="0" cy="0" r="1" gradientUnits="userSpaceOnUse" gradientTransform="matrix(-.48408 0 0 -.48418 148.537 214.173)"><stop stop-color="#fff"/><stop offset="1" stop-color="#19D8F8"/></radialGradient><radialGradient id="paint34_radial_26_6655" cx="0" cy="0" r="1" gradientUnits="userSpaceOnUse" gradientTransform="matrix(-.48407 0 0 -.48417 127.659 210.783)"><stop stop-color="#fff"/><stop offset="1" stop-color="#19D8F8"/></radialGradient><radialGradient id="paint35_radial_26_6655" cx="0" cy="0" r="1" gradientUnits="userSpaceOnUse" gradientTransform="matrix(-.48407 0 0 -.48417 105.75 211.267)"><stop stop-color="#fff"/><stop offset="1" stop-color="#19D8F8"/></radialGradient><radialGradient id="paint36_radial_26_6655" cx="0" cy="0" r="1" gradientUnits="userSpaceOnUse" gradientTransform="matrix(-.48408 0 0 -.48418 93.705 212.235)"><stop stop-color="#fff"/><stop offset="1" stop-color="#19D8F8"/></radialGradient><radialGradient id="paint37_radial_26_6655" cx="0" cy="0" r="1" gradientUnits="userSpaceOnUse" gradientTransform="matrix(-.48407 0 0 -.48417 122.757 191.285)"><stop stop-color="#fff"/><stop offset="1" stop-color="#19D8F8"/></radialGradient><radialGradient id="paint38_radial_26_6655" cx="0" cy="0" r="1" gradientUnits="userSpaceOnUse" gradientTransform="matrix(-.48407 0 0 -.48417 88.956 196.693)"><stop stop-color="#fff"/><stop offset="1" stop-color="#19D8F8"/></radialGradient><radialGradient id="paint39_radial_26_6655" cx="0" cy="0" r="1" gradientUnits="userSpaceOnUse" gradientTransform="matrix(-.48408 0 0 -.48417 77.386 191.285)"><stop stop-color="#fff"/><stop offset="1" stop-color="#19D8F8"/></radialGradient><radialGradient id="paint40_radial_26_6655" cx="0" cy="0" r="1" gradientUnits="userSpaceOnUse" gradientTransform="matrix(-.48407 0 0 -.48417 108.535 185.05)"><stop stop-color="#fff"/><stop offset="1" stop-color="#19D8F8"/></radialGradient><radialGradient id="paint41_radial_26_6655" cx="0" cy="0" r="1" gradientUnits="userSpaceOnUse" gradientTransform="matrix(-.48407 0 0 -.48417 95.745 162.373)"><stop stop-color="#fff"/><stop offset="1" stop-color="#19D8F8"/></radialGradient><radialGradient id="paint42_radial_26_6655" cx="0" cy="0" r="1" gradientUnits="userSpaceOnUse" gradientTransform="matrix(-.48407 0 0 -.48417 159.107 98.739)"><stop stop-color="#fff"/><stop offset="1" stop-color="#19D8F8"/></radialGradient><radialGradient id="paint43_radial_26_6655" cx="0" cy="0" r="1" gradientUnits="userSpaceOnUse" gradientTransform="matrix(-.48407 0 0 -.48417 130.668 54.395)"><stop stop-color="#fff"/><stop offset="1" stop-color="#19D8F8"/></radialGradient><radialGradient id="paint44_radial_26_6655" cx="0" cy="0" r="1" gradientUnits="userSpaceOnUse" gradientTransform="matrix(-.48407 0 0 -.48417 118.734 174.597)"><stop stop-color="#fff"/><stop offset="1" stop-color="#19D8F8"/></radialGradient><radialGradient id="paint45_radial_26_6655" cx="0" cy="0" r="1" gradientUnits="userSpaceOnUse" gradientTransform="matrix(-.48407 0 0 -.48417 74.82 112.021)"><stop stop-color="#fff"/><stop offset="1" stop-color="#19D8F8"/></radialGradient><radialGradient id="paint46_radial_26_6655" cx="0" cy="0" r="1" gradientUnits="userSpaceOnUse" gradientTransform="matrix(-.48407 0 0 -.48417 126.051 107.591)"><stop stop-color="#fff"/><stop offset="1" stop-color="#19D8F8"/></radialGradient><radialGradient id="paint47_radial_26_6655" cx="0" cy="0" r="1" gradientUnits="userSpaceOnUse" gradientTransform="matrix(-.48407 0 0 -.48418 178.195 65.563)"><stop stop-color="#fff"/><stop offset="1" stop-color="#19D8F8"/></radialGradient><radialGradient id="paint48_radial_26_6655" cx="0" cy="0" r="1" gradientUnits="userSpaceOnUse" gradientTransform="matrix(-.48407 0 0 -.48417 184.063 114.54)"><stop stop-color="#fff"/><stop offset="1" stop-color="#19D8F8"/></radialGradient><radialGradient id="paint49_radial_26_6655" cx="0" cy="0" r="1" gradientUnits="userSpaceOnUse" gradientTransform="matrix(-.48407 0 0 -.48417 109.65 138.356)"><stop stop-color="#fff"/><stop offset="1" stop-color="#19D8F8"/></radialGradient><radialGradient id="paint50_radial_26_6655" cx="0" cy="0" r="1" gradientUnits="userSpaceOnUse" gradientTransform="matrix(-.48407 0 0 -.48417 95.745 87.947)"><stop stop-color="#fff"/><stop offset="1" stop-color="#19D8F8"/></radialGradient><radialGradient id="paint51_radial_26_6655" cx="0" cy="0" r="1" gradientUnits="userSpaceOnUse" gradientTransform="matrix(-.48408 0 0 -.48418 67.15 65.563)"><stop stop-color="#fff"/><stop offset="1" stop-color="#19D8F8"/></radialGradient><radialGradient id="paint52_radial_26_6655" cx="0" cy="0" r="1" gradientUnits="userSpaceOnUse" gradientTransform="matrix(-.48407 0 0 -.48418 173.459 207.308)"><stop stop-color="#fff"/><stop offset="1" stop-color="#19D8F8"/></radialGradient><radialGradient id="paint53_radial_26_6655" cx="0" cy="0" r="1" gradientUnits="userSpaceOnUse" gradientTransform="matrix(-.48407 0 0 -.48417 165.787 196.693)"><stop stop-color="#fff"/><stop offset="1" stop-color="#19D8F8"/></radialGradient><radialGradient id="paint54_radial_26_6655" cx="0" cy="0" r="1" gradientUnits="userSpaceOnUse" gradientTransform="matrix(-.48407 0 0 -.48417 187.042 184.566)"><stop stop-color="#fff"/><stop offset="1" stop-color="#19D8F8"/></radialGradient><radialGradient id="paint55_radial_26_6655" cx="0" cy="0" r="1" gradientUnits="userSpaceOnUse" gradientTransform="matrix(-1.02029 0 0 -1.0205 94.725 187.412)"><stop stop-color="#fff"/><stop offset="1" stop-color="#19D8F8"/></radialGradient><radialGradient id="paint56_radial_26_6655" cx="0" cy="0" r="1" gradientUnits="userSpaceOnUse" gradientTransform="matrix(-1.02029 0 0 -1.0205 106.77 161.888)"><stop stop-color="#fff"/><stop offset="1" stop-color="#19D8F8"/></radialGradient><linearGradient id="paint1_linear_26_6655" x1="52.865" y1="277.747" x2="196.113" y2="277.747" gradientUnits="userSpaceOnUse"><stop stop-color="#024EFC"/><stop offset=".175" stop-color="#0353FC"/><stop offset=".374" stop-color="#0560FC"/><stop offset=".586" stop-color="#0A77FC"/><stop offset=".804" stop-color="#0F97FC"/><stop offset="1" stop-color="#16BAFC"/></linearGradient><linearGradient id="paint4_linear_26_6655" x1="102" y1="199.136" x2="149.14" y2="199.136" gradientUnits="userSpaceOnUse"><stop stop-color="#DFAFFF"/><stop offset="1" stop-color="#4A93FF"/></linearGradient><linearGradient id="paint3_linear_26_6655" x1="124.49" y1="219.008" x2="124.49" y2="50.358" gradientUnits="userSpaceOnUse"><stop stop-color="#5E36FF"/><stop offset=".407" stop-color="#BF5EFF" stop-opacity=".5"/><stop offset=".97" stop-color="#BF5EFF" stop-opacity="0"/></linearGradient><linearGradient id="paint2_linear_26_6655" x1="180.385" y1="201.894" x2="68.806" y2="201.894" gradientUnits="userSpaceOnUse"><stop stop-color="#12CBEC"/><stop offset=".303" stop-color="#129DEF"/><stop offset=".606" stop-color="#1376F1"/><stop offset=".847" stop-color="#135FF2"/><stop offset=".997" stop-color="#1356F3"/></linearGradient><linearGradient id="paint0_linear_26_6655" x1="52.865" y1="309.362" x2="196.113" y2="309.362" gradientUnits="userSpaceOnUse"><stop stop-color="#024EFC"/><stop offset=".175" stop-color="#0353FC"/><stop offset=".374" stop-color="#0560FC"/><stop offset=".586" stop-color="#0A77FC"/><stop offset=".804" stop-color="#0F97FC"/><stop offset="1" stop-color="#16BAFC"/></linearGradient></defs></svg>