<svg width="37" height="30" fill="none" xmlns="http://www.w3.org/2000/svg"><path d="M36.295.646c-.13-.381-.284-.484-.528-.577-.531-.202-1.43.103-1.43.103S2.47 11.624.652 12.893c-.39.275-.524.433-.59.618-.315.902.666 1.3.666 1.3l8.214 2.675s.306.045.415-.024c1.87-1.18 18.8-11.87 19.774-12.23.154-.045.267.006.236.112-.39 1.372-15.095 14.444-15.095 14.444s-.055.068-.092.15l-.02-.01-.766 8.146s-.322 2.497 2.175 0a70.045 70.045 0 014.318-3.951c2.823 1.948 5.865 4.105 7.175 5.234.659.566 1.211.658 1.664.641 1.245-.048 1.591-1.413 1.591-1.413s5.807-23.37 6.002-26.502c.021-.306.045-.501.048-.714.004-.291-.023-.583-.072-.723z" fill="url(#paint0_linear_9_11)"/><defs><linearGradient id="paint0_linear_9_11" x1="0" y1="30" x2="36.368" y2="30" gradientUnits="userSpaceOnUse"><stop stop-color="#BF5EFF"/><stop offset="1" stop-color="#5E36FF"/></linearGradient></defs></svg>