<svg width="37" height="30" fill="none" xmlns="http://www.w3.org/2000/svg"><path d="M36.669 3.596c-1.157.525-2.438.842-3.688 1.05.594-.1 1.464-1.174 1.813-1.61.532-.662.974-1.415 1.222-2.23.031-.062.055-.145-.007-.19-.08-.03-.13-.017-.197.018a18.888 18.888 0 01-4.37 1.67.292.292 0 01-.3-.079c-.128-.145-.246-.28-.384-.39A7.73 7.73 0 0028.642.537a7.36 7.36 0 00-3.249-.521 7.758 7.758 0 00-3.08.87 7.99 7.99 0 00-2.485 2.03 7.658 7.658 0 00-1.485 2.972c-.255 1.046-.234 2.082-.079 3.139.024.176.007.2-.152.176C12.108 8.309 7.134 6.16 3.094 1.559c-.176-.2-.27-.2-.414.014-1.768 2.651-.911 6.905 1.298 8.997.293.28.597.56.922.811-.118.024-1.588-.135-2.897-.811-.176-.11-.262-.049-.28.152-.017.286.008.549.049.86.338 2.685 2.2 5.171 4.747 6.138.304.127.635.238.963.293-.58.128-1.177.218-2.841.086-.207-.038-.287.066-.207.263 1.25 3.407 3.95 4.422 5.972 5.002.27.049.542.049.815.11-.017.025-.034.025-.048.05-.67 1.021-2.997 1.78-4.077 2.16-1.968.687-4.112.998-6.194.794-.335-.048-.404-.045-.494 0-.093.056-.01.135.097.221.421.28.853.525 1.291.767 1.322.7 2.7 1.26 4.14 1.657 7.443 2.054 15.822.545 21.411-5.006 4.388-4.36 5.925-10.371 5.925-16.392 0-.235.276-.366.441-.49 1.143-.856 2.062-1.885 2.914-3.031a.933.933 0 00.194-.58v-.031c-.004-.094-.007-.066-.152.003z" fill="url(#paint0_linear_9_9)"/><defs><linearGradient id="paint0_linear_9_9" x1=".368" y1="30" x2="36.821" y2="30" gradientUnits="userSpaceOnUse"><stop stop-color="#BF5EFF"/><stop offset="1" stop-color="#5E36FF"/></linearGradient></defs></svg>