<svg width="1920" height="489" viewBox="0 0 1920 489" fill="none" xmlns="http://www.w3.org/2000/svg">
<path d="M17.5696 148.537V340.038C17.5696 351.777 24.398 363.515 34.2186 369.346L200.324 465.097C211.066 470.928 223.802 470.928 234.543 465.097L400.649 369.346C411.39 363.515 417.298 351.777 417.298 340.038V148.537C417.298 136.798 410.47 125.059 400.649 119.228L234.466 23.4777C223.725 17.6467 210.989 17.6467 200.248 23.4777L34.1419 119.228C23.4006 125.059 17.5696 136.798 17.5696 148.537Z" fill="#213147"/>
<path d="M254.031 281.42L230.553 345.944C229.556 347.862 229.556 349.857 230.553 351.775L271.6 463.177L318.478 435.787L261.78 281.42C260.859 277.507 255.949 277.507 254.031 281.42Z" fill="#12AAFF"/>
<path d="M300.909 172.013C299.911 168.1 295.078 168.1 293.083 172.013L269.606 236.537C268.608 238.455 268.608 240.45 269.606 242.368L336.048 425.123L382.926 397.733L300.909 172.013Z" fill="#12AAFF"/>
<path d="M216.897 30.3057C217.894 30.3057 218.815 30.3057 219.812 31.3031L399.575 134.88C401.493 135.877 402.49 137.795 402.49 140.71V347.863C402.49 349.781 401.493 352.774 399.575 353.694L219.812 457.271C218.815 458.268 217.894 458.268 216.897 458.268C215.899 458.268 214.979 458.268 213.981 457.271L34.2186 353.694C32.3005 352.697 31.3031 350.779 31.3031 347.863V140.71C31.3031 138.792 32.3005 135.8 34.2186 134.88L213.981 31.3031C214.902 30.3057 215.899 30.3057 216.897 30.3057ZM216.897 0C210.068 0 204.161 1.91808 198.33 4.91029L18.567 108.487C6.82837 115.315 0 127.054 0 140.71V347.863C0 360.599 6.82837 373.259 18.567 380.087L198.33 483.664C204.161 486.579 210.068 488.574 216.897 488.574C223.725 488.574 229.633 486.656 235.464 483.664L415.226 380.087C426.965 373.259 433.793 361.52 433.793 347.863V140.71C433.793 127.974 426.965 115.315 415.226 108.487L236.384 4.91029C230.553 1.99481 224.646 0 217.817 0H216.897Z" fill="#9DCCED"/>
<path d="M98.6661 425.047L115.238 380.087L148.459 407.477L117.233 436.785L98.6661 425.047Z" fill="#213147"/>
<path d="M202.243 126.056H156.285C153.37 126.056 149.457 127.974 148.46 130.966L50.7908 398.653L97.6687 426.044L205.158 131.887C206.155 128.971 204.161 126.056 201.245 126.056H202.243Z" fill="white"/>
<path d="M281.344 126.055H235.387C232.471 126.055 228.559 127.974 227.561 130.966L116.236 435.787L163.114 463.177L284.26 130.966C285.257 128.05 283.262 125.135 280.347 125.135L281.344 126.055Z" fill="white"/>
<path d="M627.29 181.758C632.2 181.758 636.113 182.755 639.028 184.673C641.944 186.591 644.859 190.504 647.851 195.415L707.465 302.904C708.463 303.901 708.463 304.822 707.465 305.819C707.465 306.817 706.468 306.817 704.55 306.817H682.07C680.152 306.817 679.155 305.819 678.157 304.899L665.344 281.421H581.332L568.596 304.899C567.599 306.817 566.678 306.817 564.683 306.817H541.206C539.288 306.817 538.291 306.817 538.291 305.819C538.291 304.822 538.291 303.901 538.291 302.904L596.907 195.415C599.823 189.584 602.738 186.591 605.73 184.673C608.723 182.755 611.561 181.758 615.474 181.758H626.216H627.29ZM592.074 260.936H653.606L625.295 208.151C624.297 207.153 624.297 207.153 623.377 207.153H622.379C621.382 207.153 620.461 207.153 620.461 208.151L592.074 260.936Z" fill="white"/>
<path d="M837.358 181.758C851.015 181.758 860.835 184.673 866.666 191.502C872.497 197.333 875.489 207.153 875.489 218.892V228.636C875.489 239.377 873.571 247.203 869.658 253.034C865.746 258.865 858.917 262.778 849.173 264.772L879.479 302.904C880.476 303.901 880.476 304.822 880.476 305.819C880.476 306.817 879.479 307.737 877.561 307.737H854.084C852.165 307.737 851.168 307.737 851.168 306.74C850.171 306.74 850.171 305.743 849.25 304.822L820.939 267.688H763.32V303.825C763.32 306.74 762.322 307.737 759.407 307.737H739.843C736.927 307.737 735.93 306.74 735.93 303.825V187.589C735.93 183.676 737.848 181.758 741.761 181.758H838.509H837.358ZM763.09 246.205H831.45C837.281 246.205 842.191 245.208 844.186 242.292C847.102 239.377 848.099 235.464 848.099 230.554V222.728C848.099 216.897 847.102 212.984 844.186 210.989C841.271 208.074 837.358 207.076 831.45 207.076H765.008C763.09 207.076 763.09 208.074 763.09 208.995V246.205Z" fill="white"/>
<path d="M1025.94 181.758C1038.68 181.758 1047.43 184.673 1052.34 189.584C1057.25 194.494 1060.16 202.32 1060.16 212.064V220.887C1060.16 230.631 1056.25 238.456 1048.42 243.367C1056.25 248.277 1061.16 256.103 1061.16 266.844V277.585C1061.16 282.495 1060.16 286.408 1059.24 290.321C1058.32 294.234 1056.33 297.15 1054.33 300.065C1051.42 302.981 1048.5 304.975 1044.59 305.896C1040.67 306.893 1035.76 307.814 1029.93 307.814H923.441C919.529 307.814 917.61 305.896 917.61 301.983V187.666C917.61 183.753 919.529 181.835 923.441 181.835H1027.02H1025.94V181.758ZM944.847 233.546H1018.12C1023.95 233.546 1027.86 232.549 1029.86 230.631C1031.85 228.712 1032.77 226.718 1032.77 222.805V216.974C1032.77 213.061 1031.77 210.145 1029.86 209.148C1027.94 207.23 1024.03 206.233 1020.11 206.233H946.842C944.924 206.233 944.924 207.23 944.924 208.151V233.546H944.847ZM944.847 253.11V279.503C944.847 281.421 945.845 281.421 946.765 281.421H1020.04C1024.95 281.421 1027.86 280.424 1029.78 278.506C1031.7 276.588 1032.7 273.596 1032.7 270.68V263.852C1032.7 259.939 1031.7 257.023 1029.78 255.029C1027.86 253.034 1023.95 252.113 1017.04 252.113H943.85L944.847 253.11Z" fill="white"/>
<path d="M1127.53 181.758C1130.44 181.758 1131.44 182.755 1131.44 185.671V302.904C1131.44 305.819 1130.44 306.817 1127.53 306.817H1107.96C1105.05 306.817 1104.05 305.819 1104.05 302.904V185.671C1104.05 182.755 1105.05 181.758 1107.96 181.758H1127.53Z" fill="white"/>
<path d="M1316.11 181.758C1319.03 181.758 1320.02 182.755 1320.02 185.671V203.24C1320.02 206.156 1319.03 207.153 1316.11 207.153H1259.41V302.904C1259.41 305.819 1258.42 306.817 1255.5 306.817H1235.94C1233.02 306.817 1232.02 305.819 1232.02 302.904V207.153H1175.32C1172.41 207.153 1171.41 206.156 1171.41 203.24V185.671C1171.41 182.755 1172.41 181.758 1175.32 181.758H1315.04H1316.11Z" fill="white"/>
<path d="M1457.82 181.758C1471.48 181.758 1481.3 184.673 1487.13 191.502C1492.96 197.333 1495.95 207.153 1495.95 218.892V228.636C1495.95 239.377 1494.03 247.203 1490.12 253.034C1486.21 258.865 1479.38 262.778 1469.63 264.772L1499.94 302.904C1500.94 303.901 1500.94 304.822 1500.94 305.819C1500.94 306.817 1499.94 307.737 1498.02 307.737H1474.54C1472.63 307.737 1471.63 307.737 1471.63 306.74C1470.63 306.74 1470.63 305.743 1469.71 304.822L1441.4 267.688H1383.78V303.825C1383.78 306.74 1382.78 307.737 1379.87 307.737H1360.3C1357.39 307.737 1356.39 306.74 1356.39 303.825V187.589C1356.39 183.676 1358.31 181.758 1362.22 181.758H1458.97H1457.82ZM1383.55 246.205H1451.91C1457.74 246.205 1462.65 245.208 1464.65 242.292C1467.56 239.377 1468.56 235.464 1468.56 230.554V222.728C1468.56 216.897 1467.56 212.984 1464.65 210.989C1461.73 208.074 1457.82 207.076 1451.91 207.076H1385.47C1383.55 207.076 1383.55 208.074 1383.55 208.995V246.205Z" fill="white"/>
<path d="M1558.48 181.758C1561.4 181.758 1562.39 182.755 1562.39 185.671V257.023C1562.39 261.934 1562.39 265.847 1563.39 268.762C1564.39 271.677 1565.31 274.593 1567.3 276.588C1569.3 278.583 1571.22 279.503 1574.13 280.501C1577.05 281.498 1580.96 281.498 1585.87 281.498H1635.74C1640.65 281.498 1644.56 281.498 1647.48 280.501C1650.39 279.503 1653.31 278.583 1654.31 276.588C1656.23 274.67 1657.22 271.677 1658.22 268.762C1659.22 265.847 1659.22 261.934 1659.22 257.023V185.671C1659.22 182.755 1660.21 181.758 1663.13 181.758H1682.69C1685.61 181.758 1686.61 182.755 1686.61 185.671V259.939C1686.61 268.762 1685.61 275.59 1683.69 281.421C1681.77 287.252 1678.78 292.163 1674.87 296.075C1670.96 299.988 1666.05 302.904 1659.22 303.901C1652.39 305.819 1645.56 306.817 1635.74 306.817H1583.95C1575.13 306.817 1567.3 305.819 1560.47 303.901C1554.64 301.983 1548.74 298.991 1544.82 296.075C1540.91 292.163 1537.99 287.252 1536 281.421C1534.08 275.59 1533.08 267.765 1533.08 259.939V185.671C1533.08 182.755 1534.08 181.758 1537 181.758H1556.56H1558.48Z" fill="white"/>
<path d="M1763.64 181.758C1766.55 181.758 1768.55 181.758 1770.47 182.755C1772.38 182.755 1774.38 183.753 1775.38 184.673C1776.37 185.671 1778.29 186.591 1779.29 188.586C1780.29 190.504 1781.21 192.499 1783.2 195.415L1820.34 281.421C1821.33 282.419 1821.33 283.339 1823.25 283.339H1825.17C1826.17 283.339 1827.09 282.342 1828.09 281.421L1865.22 195.415C1866.22 192.499 1867.14 190.504 1869.13 188.586C1870.13 186.668 1871.05 185.671 1873.05 184.673C1874.04 183.676 1875.96 182.755 1877.96 182.755C1879.95 182.755 1881.87 181.758 1884.78 181.758H1904.35C1910.18 181.758 1915.09 182.755 1917.08 185.671C1919 188.586 1920 193.496 1920 200.325V302.904C1920 305.819 1919 306.817 1916.09 306.817H1897.52C1894.6 306.817 1893.61 305.819 1893.61 302.904V209.148C1893.61 208.151 1892.61 207.23 1892.61 207.23H1890.69C1889.69 207.23 1888.77 208.227 1888.77 208.227L1852.64 288.326C1851.64 291.242 1849.72 294.157 1847.73 296.152C1845.73 298.147 1844.81 300.065 1842.82 301.983C1840.9 302.981 1838.9 304.899 1836.99 304.899C1835.07 305.896 1832.08 305.896 1829.16 305.896H1820.34C1817.42 305.896 1814.51 305.896 1812.51 304.899C1810.52 303.901 1808.6 302.981 1806.68 301.983C1804.76 300.986 1803.76 299.068 1801.77 296.152C1799.85 294.234 1798.85 291.242 1796.86 288.326L1760.72 208.227C1760.72 207.23 1759.73 207.23 1758.8 207.23H1756.89C1755.89 207.23 1755.89 208.227 1755.89 209.148V302.981C1755.89 305.896 1754.89 306.893 1751.98 306.893H1733.33C1730.42 306.893 1729.42 305.896 1729.42 302.981V200.325C1729.42 193.496 1730.42 188.586 1732.33 185.671C1734.25 182.755 1739.16 181.758 1745.07 181.758H1764.64H1763.64Z" fill="white"/>
</svg>
