<svg width="1920" height="521" viewBox="0 0 1920 521" fill="none" xmlns="http://www.w3.org/2000/svg">
<path d="M535.747 62.7444H624.072C646.516 62.7444 662.926 68.7776 673.544 79.1546C683.922 88.0837 688.507 100.15 688.507 111.975C688.507 116.56 688.507 122.352 687.059 126.937C684.163 134.419 679.578 141.9 673.544 147.933C670.649 150.829 667.511 152.518 664.615 153.966C674.992 156.862 684.163 162.895 691.644 170.376C697.677 177.858 700.573 186.787 700.573 200.301C700.573 207.782 699.125 216.711 695.988 222.744C693.092 228.778 687.059 234.811 681.026 239.155C673.545 243.74 666.063 246.636 658.582 249.532C649.653 252.428 639.035 252.428 628.658 252.428H537.195V62.2617H535.747V62.7444ZM616.591 140.452C624.072 140.452 631.554 139.004 639.035 135.867C645.068 132.971 647.964 126.937 647.964 120.904C647.964 114.871 645.068 108.838 640.483 105.942C634.449 101.357 626.968 99.9088 619.487 101.357H577.496V141.658H616.35V140.452H616.591ZM626.968 216.953C634.449 216.953 641.931 215.505 649.412 212.367C655.445 209.471 658.341 203.438 656.893 195.957C656.893 189.924 653.997 183.891 649.412 180.995C644.827 178.099 635.897 174.962 625.52 174.962H576.048V216.953H626.968Z" fill="#F3BA2F"/>
<path d="M752.7 62.7451H794.691V254.359H752.7V62.7451Z" fill="#F3BA2F"/>
<path d="M859.125 62.7451H897.979L987.753 180.995V62.7451H1029.5V254.359H993.786L899.427 132.971V254.359H859.125V62.7451Z" fill="#F3BA2F"/>
<path d="M1156.92 61.2969H1195.78L1278.07 254.359H1234.63L1216.77 210.92H1135.93L1118.07 254.359H1074.63L1156.92 61.2969ZM1201.81 174.962L1176.47 112.217L1151.13 174.962H1201.81Z" fill="#F3BA2F"/>
<path d="M1322.96 62.7451H1361.81L1451.58 180.995V62.7451H1493.57V254.359H1457.62L1364.71 132.971V254.359H1322.96V62.7451Z" fill="#F3BA2F"/>
<path d="M1646.09 257.254C1632.58 257.254 1619.06 254.358 1607.24 249.773C1583.35 239.396 1565.25 221.297 1554.87 197.405C1550.29 185.339 1547.39 172.066 1547.39 158.551C1547.39 133.212 1557.77 107.631 1575.87 88.3253C1584.8 79.3962 1595.41 71.915 1607.24 67.3298C1620.75 61.2966 1634.27 59.8486 1647.54 59.8486C1655.02 59.8486 1663.95 59.8486 1671.43 61.2966C1678.91 62.7446 1684.95 64.1925 1690.98 67.3298C1697.01 70.2257 1703.05 73.363 1707.39 76.2589C1711.98 79.1549 1717.77 83.7401 1722.35 88.3253L1697.01 119.698C1689.53 113.665 1682.05 107.631 1674.57 103.288C1667.09 98.9437 1658.16 97.2544 1649.23 97.2544C1641.75 97.2544 1634.27 98.7023 1626.79 101.84C1619.31 104.735 1613.27 109.321 1608.93 115.354C1604.59 121.387 1600 127.42 1596.86 134.901C1593.97 142.383 1592.28 149.864 1592.28 157.345C1592.28 164.826 1593.73 173.755 1596.86 181.236C1600 188.717 1602.9 194.751 1608.93 200.784C1619.31 212.85 1634.27 218.642 1649.23 218.642C1658.16 218.642 1668.78 217.194 1677.71 212.609C1685.19 208.024 1694.12 202.232 1700.15 196.199L1726.94 222.986C1722.35 227.571 1716.56 233.363 1711.98 237.948C1705.94 242.533 1699.91 245.429 1694.12 248.325C1688.08 251.221 1680.6 254.358 1673.12 255.806C1662.5 257.254 1653.57 257.254 1646.09 257.254Z" fill="#F3BA2F"/>
<path d="M1774.96 62.7451H1918.55V100.151H1815.26V139.005H1906.49V176.41H1815.26V216.953H1920V254.359H1774.96V62.7451Z" fill="#F3BA2F"/>
<path d="M589.563 442.836C579.185 442.836 568.567 441.388 559.638 436.802C550.709 433.906 541.78 427.873 532.609 420.392L547.572 403.982C553.605 410.015 559.638 412.911 567.119 417.496C574.6 420.392 582.081 422.081 589.563 422.081C595.596 422.081 601.629 420.633 607.421 417.496C612.006 414.6 613.454 410.015 613.454 405.43C613.454 403.982 613.454 400.845 612.006 399.397C610.558 397.949 609.11 394.811 607.421 393.363C604.525 391.915 601.388 390.467 598.492 388.778C593.906 387.33 588.115 385.882 583.529 384.193C577.496 382.745 570.015 381.297 563.982 378.16C559.397 376.712 553.605 373.575 550.467 370.679C547.572 367.783 544.434 364.645 541.538 360.302C538.642 354.268 538.642 348.235 538.642 343.891C538.642 337.858 540.09 333.514 541.538 327.481C542.986 322.896 547.572 318.552 550.467 315.415C555.053 312.519 559.397 309.382 565.43 307.934C571.463 306.486 577.496 305.038 583.288 305.038C592.217 305.038 601.146 306.486 610.317 309.623C617.798 312.519 625.279 317.104 632.76 321.689L620.694 339.547C614.661 334.962 608.627 332.066 602.836 329.17C596.802 326.274 590.769 326.274 584.977 326.274C578.944 326.274 572.911 327.722 568.567 330.86C565.671 333.756 562.534 338.341 562.534 342.926C562.534 345.822 562.534 347.511 563.982 350.407C565.43 351.855 566.878 354.992 568.567 356.44C571.463 357.888 574.6 359.336 578.944 361.026C583.529 362.474 587.873 363.921 595.354 365.611C601.388 367.059 607.421 368.507 614.902 371.644C619.487 373.092 623.831 376.229 628.416 379.125C631.312 382.021 634.449 386.606 635.897 389.502C637.345 394.087 638.793 398.431 638.793 404.464C638.793 410.498 637.345 416.531 635.897 420.875C633.001 425.46 629.864 429.804 625.52 434.389C620.935 437.285 616.591 440.422 610.558 441.87C603.077 441.388 595.596 442.836 589.563 442.836Z" fill="#F3BA2F"/>
<path d="M664.374 306.727H689.955L730.256 369.472L772.247 306.727H797.587V441.388H773.695V344.133L731.704 406.878H730.256L688.507 344.133V441.388H664.374V306.727Z" fill="#F3BA2F"/>
<path d="M878.432 305.279H900.875L959.276 439.939H933.937L920.422 407.119H857.677L844.163 439.939H820.272L878.432 305.279ZM912.941 387.571L889.05 333.755L866.606 387.571H912.941Z" fill="#F3BA2F"/>
<path d="M983.167 306.727H1043.02C1050.5 306.727 1057.98 308.175 1065.46 309.623C1071.49 311.071 1077.53 315.656 1081.87 320C1084.77 322.896 1087.9 327.481 1090.8 333.514C1092.25 338.1 1093.7 343.891 1093.7 349.925C1093.7 354.51 1092.25 360.302 1090.8 364.887C1089.35 369.472 1086.21 372.368 1084.77 376.953C1081.87 379.849 1078.73 382.986 1074.39 385.882C1069.8 388.778 1065.46 390.468 1060.87 391.916L1096.83 442.836H1068.36L1035.54 396.501H1005.61V442.836H981.719L983.167 306.727ZM1041.57 372.609C1049.05 372.609 1056.53 371.161 1061.12 366.576C1065.7 361.991 1068.6 356.199 1068.6 350.166C1068.6 344.133 1065.7 338.1 1061.12 333.756C1055.08 329.17 1047.6 327.722 1040.12 327.722H1005.61V372.609H1041.57Z" fill="#F3BA2F"/>
<path d="M1155.23 327.722H1111.79V306.727H1221.12V327.722H1177.68V441.388H1153.79L1155.23 327.722Z" fill="#F3BA2F"/>
<path d="M1366.4 442.836C1357.47 442.836 1348.54 441.388 1339.37 436.803C1322.96 429.322 1309.44 417.256 1303.41 400.845C1300.51 391.916 1297.38 382.987 1298.82 373.817C1298.82 364.888 1300.27 355.958 1303.41 346.788C1309.44 330.378 1322.96 316.863 1339.37 309.382C1348.3 306.486 1357.22 303.349 1367.84 303.349C1373.88 303.349 1379.91 303.349 1384.25 304.797C1388.84 306.245 1393.18 307.693 1397.77 309.382C1402.35 310.83 1405.25 313.968 1409.83 315.415C1412.73 318.311 1417.32 321.449 1420.21 324.345L1405.25 342.203C1400.66 337.618 1394.87 333.274 1388.84 330.136C1382.81 327.241 1375.32 325.551 1367.84 325.551C1361.81 325.551 1355.78 326.999 1349.98 328.447C1343.95 331.343 1339.61 334.48 1335.02 338.824C1330.44 343.409 1327.54 347.753 1326.09 353.787C1324.65 359.82 1323.2 365.853 1323.2 371.645C1323.2 377.678 1324.65 383.711 1326.09 389.503C1327.54 395.295 1330.68 399.88 1335.02 404.465C1339.61 409.051 1343.95 411.946 1349.98 414.842C1356.02 417.738 1362.05 419.428 1367.84 417.738C1375.32 417.738 1382.81 416.29 1388.84 413.153C1394.87 410.257 1400.91 405.672 1406.7 399.639L1421.66 414.601C1418.76 417.497 1414.18 422.082 1411.28 424.978C1406.7 427.874 1403.8 431.011 1399.22 432.459C1394.63 433.907 1390.29 437.045 1384.25 437.045C1378.22 442.836 1372.19 442.836 1366.4 442.836Z" fill="#F3BA2F"/>
<path d="M1445.55 306.727H1467.99V361.991H1532.43V306.727H1556.32V441.388H1532.43V384.434H1467.99V441.388H1445.55V306.727Z" fill="#F3BA2F"/>
<path d="M1638.61 305.279H1661.06L1719.46 439.939H1694.12L1680.6 407.119H1617.86L1604.34 439.939H1580.45L1638.61 305.279ZM1671.67 387.571L1649.23 333.755L1626.79 387.571H1671.67Z" fill="#F3BA2F"/>
<path d="M1743.35 306.727H1767.48V441.388H1743.35V306.727Z" fill="#F3BA2F"/>
<path d="M1803.2 306.727H1824.19L1896.11 399.397V306.727H1920V441.388H1900.45L1827.33 345.581V441.388H1803.2V306.727Z" fill="#F3BA2F"/>
<path d="M272.459 432.458V490.86L221.538 520.784L172.066 490.86V432.458L221.538 462.383L272.459 432.458ZM0 230.468L49.4721 260.392V360.543L134.661 411.463V469.864L0 390.468V230.468ZM443.077 230.468V390.709L306.968 470.106V411.704L392.157 360.784V260.633L443.077 230.468ZM306.727 151.071L357.647 180.995V239.397L272.459 290.317V391.916L222.986 421.84L173.756 391.916V290.075L85.4299 239.155V180.754L136.35 150.83L221.538 201.75L306.727 151.071ZM85.4299 281.146L134.902 311.071V369.472L85.4299 339.547V281.146ZM357.647 281.146V339.547L308.175 369.472V311.071L357.647 281.146ZM49.4721 100.151L100.392 130.075L49.4721 160V218.401L0 188.477V130.075L49.4721 100.151ZM393.605 100.151L444.525 130.075V188.477L393.605 218.401V160L344.133 130.075L393.605 100.151ZM221.538 100.151L272.459 130.075L221.538 160L172.066 130.075L221.538 100.151ZM221.538 0L357.647 79.3967L308.175 109.321L222.986 58.4012L136.109 109.321L86.6365 79.3967L221.538 0Z" fill="#F3BA2F"/>
</svg>
