<svg width="1920" height="364" viewBox="0 0 1920 364" fill="none" xmlns="http://www.w3.org/2000/svg">
<g clip-path="url(#clip0_603_187)">
<path d="M1535.72 363.06H1452.22C1352.1 363.06 1270.7 281.661 1270.7 181.543C1270.7 81.426 1352.1 0 1452.24 0C1552.39 0 1633.76 81.3997 1633.76 181.517V359.427H1561.15V181.517C1561.15 121.336 1512.42 72.6068 1452.24 72.6068C1392.06 72.6068 1343.33 121.336 1343.33 181.517C1343.33 241.698 1392.06 290.427 1452.24 290.427H1535.75V363.034L1535.72 363.06Z" fill="white"/>
<path d="M1125.48 359.427H1052.88V181.517C1052.88 81.3997 1134.28 0 1234.39 0V72.6068C1174.21 72.6068 1125.48 121.336 1125.48 181.517V359.427Z" fill="white"/>
<path d="M798.727 363.06C698.61 363.06 617.21 281.661 617.21 181.543C617.21 81.426 698.61 0 798.727 0C898.845 0 980.245 81.3997 980.245 181.517V217.82H771.48V145.214H901.319C886.235 102.882 846.009 72.6068 798.806 72.6068C738.625 72.6068 689.896 121.336 689.896 181.517C689.896 241.698 738.625 290.427 798.806 290.427C835.11 290.427 869.018 272.262 889.289 241.988L949.47 282.503C915.851 332.759 859.567 363.034 798.701 363.034L798.727 363.06Z" fill="white"/>
<path d="M1920 72.6064H1742.67V359.427H1920V72.6064Z" fill="white"/>
<path d="M363.06 326.757L508.274 181.517L363.06 36.3037V145.214L217.847 254.15H363.06V326.757Z" fill="white"/>
<path d="M145.214 36.3037L0 181.517L145.214 326.757V217.847L290.454 108.911H145.214V36.3037Z" fill="white"/>
</g>
<defs>
<clipPath id="clip0_603_187">
<rect width="1920" height="363.06" fill="white"/>
</clipPath>
</defs>
</svg>
